<?xml version="1.0" encoding="utf-8"?>
<!-- generated at drububu.com  -->
<!DOCTYPE svg PUBLIC "-//W3C//DTD SVG 1.1//EN" "http://www.w3.org/Graphics/SVG/1.1/DTD/svg11.dtd">
<svg version="1.1" preserveAspectRatio="xMinYMin meet" xmlns="http://www.w3.org/2000/svg" xmlns:xlink="http://www.w3.org/1999/xlink" x="0px" y="0px" viewBox="0 0 256 256">
<path d="M111 22h1v1h-1v-1z"/>
<path d="M113 22h1v1h-1v-1z"/>
<path d="M115 22h1v1h-1v-1z"/>
<path d="M117 22h1v1h-1v-1z"/>
<path d="M119 22h1v2h-1v1h1v-1h1v-1h2v1h-1v1h1v1h1v-1h-1v-1h2v1h3v1h1v-1h1v1h1	v-1h1v1h3v1h-1v1h1v-1h3v1h-1v1h1v-1h1v1h2v-1h1v1h1v1h1v-1h-1v-1h2v1h1v1h1v-1h3	v1h2v1h1v-1h1v1h1v1h1v1h1v1h1v-1h1v1h1v1h1v-1h1v-1h1v1h1v1h1v-1h1v1h2v1h1v1h4v3	h-2v1h1v1h1v2h1v2h1v-2h1v1h1v1h-1v1h-1v1h1v-1h1v-1h1v2h-1v1h1v1h1v1h1v-1h-1v-1	h-1v-1h2v1h2v1h-1v1h1v-1h1v-1h1v2h-1v1h1v-1h1v-2h1v1h2v1h-2v1h-1v1h-1v1h1v1h1	v1h-1v1h1v1h-1v1h1v-1h1v1h1v-1h1v2h-3v1h3v1h1v1h-1v1h2v-1h2v1h-1v2h1v1h-1v1h1	v-1h1v-1h1v1h1v2h-1v1h1v1h-1v1h-1v1h1v1h1v1h-1v1h1v-1h1v1h1v1h1v1h1v1h-1v2h-1v-1	h-1v-1h-1v1h-1v1h1v-1h1v1h1v1h-1v1h1v-1h1v1h1v-1h1v1h1v-1h2v1h-1v1h-1v1h-1v-1	h-1v1h-1v-1h-1v1h-1v-1h-1v1h1v1h1v-1h1v1h1v1h-1v1h1v-1h1v-1h1v1h1v-1h1v1h1v-1h1	v-2h3v1h-2v1h2v1h-1v1h-1v-1h-1v1h-1v1h-1v-1h-1v1h-1v1h-1v1h-1v1h1v-1h1v1h1v-1	h1v-1h1v-1h1v2h-1v1h-1v1h1v1h1v-1h1v3h-1v-1h-1v1h-1v-2h-1v-1h-2v1h-1v-1h-1v1h1	v1h-1v1h1v-1h1v-1h2v1h-1v1h-1v2h2v1h-1v1h1v-1h1v-1h-1v-1h-1v-1h2v1h1v2h1v2h-1v1	h1v1h-1v1h1v-1h1v-1h2v1h-1v1h-1v1h1v2h-1v-1h-1v-1h-2v-1h-1v1h1v1h-1v1h1v-1h2v1	h-1v1h-1v2h1v-2h1v-1h1v1h1v1h1v3h-2v-2h-1v1h-1v1h-1v1h1v1h-1v1h1v-1h1v-1h-1v-1	h2v1h1v1h-1v1h-1v1h-1v1h1v1h1v1h-1v1h-1v1h1v1h1v1h-1v1h1v1h1v1h1v1h-1v2h-1v-1	h-1v1h1v1h1v1h-1v1h1v1h2v3h-1v1h1v-1h1v1h2v3h-2v-1h-1v-1h-1v1h1v1h-2v1h2v-1h1v1	h2v-1h1v1h1v-1h1v1h1v1h1v4h2v1h-2v1h-1v-4h-2v-1h-1v-1h-1v2h-1v-2h-1v2h-2v3h-1	v1h-1v1h-1v-1h-2v2h1v1h-1v1h1v-1h1v2h-1v1h-1v-1h-1v1h-1v1h1v-1h1v1h1v-1h1v-1h1	v3h-1v2h2v1h-2v1h2v1h-1v3h-1v1h-1v-1h-1v1h1v1h1v1h-1v1h1v-1h1v1h1v-1h1v3h-1v-1	h-1v1h1v1h-1v1h-1v1h1v1h1v1h-1v1h-2v-1h1v-1h-2v1h-1v2h1v1h1v1h-1v1h-1v1h1v-1h3	v1h-2v1h2v2h-1v-1h-1v1h-1v1h-1v1h-1v-1h-1v1h1v1h-1v1h1v1h3v-1h1v1h1v1h-1v1h-1	v-1h-1v1h-1v-1h-2v1h-2v-1h-2v-2h1v-3h-2v-1h1v-3h-1v-1h1v-3h-1v-1h-4v1h-1v1h1v2	h-1v1h-1v-1h-1v1h-1v-1h-1v1h1v1h1v1h1v-1h1v-1h1v3h-1v1h1v1h-3v-1h-1v1h-1v-1h-1v1	h-1v-2h-2v1h1v3h1v1h-2v1h-1v-1h-1v1h1v1h1v-1h2v1h-1v1h-2v3h-1v-1h-2v-2h-1v-1h1	v-1h-1v-1h-1v-1h-1v-1h-3v1h-1v1h-1v-1h-3v1h2v1h-1v1h-1v-1h-1v-1h-1v1h1v1h-3v-1	h-1v-2h-2v-1h1v-1h-2v-1h-1v-1h-1v1h1v1h-3v1h-1v-1h-1v1h-1v1h-1v1h-1v-1h-1v1h1	v2h-1v-1h-1v-1h-1v1h-1v1h-1v-1h-1v-2h-1v2h1v1h-1v2h-1v-2h-1v-1h-1v-1h-1v1h-1v-1	h-1v1h-1v1h-1v2h-2v-1h-1v1h-1v-1h-1v1h1v2h-1v-1h-1v-1h-1v1h-1v-1h-1v-1h-1v1h-1	v-1h-1v-1h-1v-1h-1v1h1v1h-1v1h1v-1h1v1h1v1h-1v1h-1v-1h-1v1h-1v-1h-1v-1h-1v1h-1	v-1h-1v-1h1v-1h-1v-1h-1v-1h-1v1h-1v-1h-1v-1h-1v1h1v1h-1v1h-1v1h1v1h1v1h-1v1h-1	v1h-1v-1h-1v-1h-1v-1h-1v1h1v1h-1v1h1v-1h1v1h1v1h-1v1h1v1h-1v1h-1v-1h-1v1h1v1	h-1v1h-1v-1h-1v-1h-1v1h1v1h1v1h-1v2h-1v-1h-1v1h1v1h-1v1h-1v1h-1v-1h-1v1h1v1h-1v1	h-1v-1h-1v-1h1v-2h1v-1h-1v-2h-2v1h-1v1h1v1h1v2h-1v-1h-1v-1h-1v1h1v1h1v1h1v1h1	v1h-1v1h1v-1h1v1h1v-1h1v2h1v1h1v-1h1v1h1v1h1v-1h1v1h1v1h1v-1h1v2h1v-2h1v2h2v1h1	v-1h1v1h1v-1h1v1h1v1h1v-1h1v1h1v-1h1v1h1v-1h1v1h2v-1h1v1h7v-1h1v1h1v-1h1v1h1	v-1h5v-1h2v-1h2v-1h1v-1h1v1h1v-2h3v-1h1v-1h1v-2h1v-1h1v-2h1v-3h1v-6h-1v-3h-1v-2	h-1v-2h-1v-2h1v1h2v1h1v1h2v1h1v1h1v1h1v1h1v1h2v1h2v1h2v1h2v1h2v1h3v1h2v1h3v1h2	v1h2v1h2v1h2v1h2v1h2v1h1v1h2v1h2v1h1v1h1v1h2v1h1v1h1v1h2v1h1v1h-1v1h1v-1h2v1h1	v1h2v1h1v1h1v1h1v2h1v2h1v1h1v3h1v4h1v3h1v2h1v1h-1v1h1v3h1v1h-1v1h1v4h1v3h-15v-1	h-1v1h-15v-1h-1v1h-39v-1h-1v1h-1v-1h-1v1h-2v-1h-1v1h-1v-1h-1v1h-3v-1h-1v1h-8	v-1h-1v1h-6v-1h-1v1h-3v-1h-1v1h-125v-28h1v-2h1v-1h1v-1h1v-1h1v-1h1v1h1v-1h5v-1h4	v-1h1v-1h1v-2h1v-2h1v-2h1v-4h-1v-1h2v-2h1v-1h-1v-1h2v-2h-1v-1h-1v-1h-1v1h1v1h1	v1h-1v1h-1v-1h-1v1h1v3h-2v-1h1v-1h-1v-1h-1v-1h-1v1h1v1h1v1h-2v-1h-1v-1h-1v-1h1	v-1h-1v-1h-1v-1h1v-1h1v-1h2v-1h1v-1h1v-1h-1v-1h-1v-1h-1v-1h3v-1h1v-1h-1v-2h-1	v-2h-1v-1h-1v-1h2v-1h1v-1h-1v-1h-2v-1h1v-1h2v-1h-2v-1h-1v-1h-1v-1h1v-2h-2v-1h-1	v1h-2v-1h1v-1h1v-1h-1v-1h-1v-1h1v-1h1v-1h1v-1h1v-1h1v-1h-1v-1h-1v-1h-1v-1h-2	v-1h1v-1h-1v-1h2v-2h1v-1h-1v-2h-1v-1h1v-1h1v-2h2v-1h1v-1h1v-1h-1v-1h-1v1h1v1h-2	v-1h-1v-1h1v-1h1v-1h1v-1h-1v-1h-1v-1h1v-1h1v-1h-1v-1h-1v-2h1v-1h-1v-1h-1v-1h2	v-1h1v-1h-1v-1h-1v-1h1v-1h1v-1h-1v-1h1v-2h1v1h2v-1h1v-1h-1v-1h-2v-1h1v-1h1v-2h1	v-1h1v-1h-1v-1h-1v-1h2v-1h1v-1h1v-2h1v-1h1v1h1v-1h1v-1h1v-1h-1v-1h-1v-2h-1v2h-1	v-4h-1v-1h1v-1h-1v-2h1v1h1v1h1v1h1v-1h1v-1h1v-1h-1v-1h1v-2h1v-1h1v-1h1v-1h-1	v-1h-4v-1h5v1h1v-1h2v-1h1v-1h-1v-1h-1v-1h1v-1h1v-1h-1v-1h-1v-1h1v-3h-1v-1h2v2h2	v-1h-1v-2h1v1h1v-1h1v-1h-1v-2h1v1h1v-3h2v1h1v-1h1v-1h-1v-1h-1v-1h1v-1h2v-1h-2	v-1h2v-1h1v-1h1v-1h-1v-1h2v-1h2v-1h1v3h1v-3h1v-3h1v2h1v-2h1v-2h1v-1h1v-2h1v1h1	v-1h2v-1h-1v-1h2v-2h1v-1h-1v-2h1v1h1v-1h1v-1h1v1h1v-1h3v-1h1v-1h-1v-1h1v-2h1v-1	h3v-1h2v-1h1v-1h1v1h1v-1h1v-1h3v-1h2v1h1v-1h1v-1h-1v-1h2v-1h1v1h1v-1h2v1h1v-1h1	v1h1v-1h1v-1h-1v-2h1v1h2v1h2v-1h1v1h2v-1h3v-1h-3v-1h4v1h1v-1h1v1h1v-1h1v-1h1v1	h1v-1h1v-1zM115 25v1h1v-1h-1zM117 25v1h1v-1h-1zM113 26v1h1v-1h-1zM102 27v1h1v-1h-1zM109 27v1h1v-1h-1zM111 27v1h1v-1h-1zM95 29v1h1v-1h-1zM93 30v1h1v-1h-1zM96 31v1h1v-1h-1zM88 32v1h1v-1h-1zM85 33v1h1v-1h-1zM139 35v1h1v-1h-1zM76 37v1h1v-1h-1zM78 37v1h1v-1h-1zM77 39v1h1v-1h-1zM74 42v1h1v-1h-1zM132 42v1h-1v1h1v-1h1v-1h-1zM72 43v1h1v-1h-1zM68 44v1h1v-1h-1zM71 44v1h1v-1h-1zM69 45v1h1v-1h-1zM129 45v1h1v-1h-1zM141 34v1h1v-1h-1zM138 37v1h1v-1h-1zM136 39v1h1v-1h-1zM134 41v1h1v-1h-1zM67 46v1h1v-1h-1zM69 47v1h1v-1h-1zM67 48v1h1v-1h-1zM127 48v1h1v-1h-1zM131 45v1h1v-1h-1zM129 47v1h1v-1h-1zM141 36v1h1v-1h-1zM139 38v1h-1v2h1v2h-1v-1h-1v-1h-1v1h-1v1h-1v1h-1v2h-1v1h-1v1h-1v1h1v1h-1v1h-1v1	h-2v1h1v1h-1v1h1v1h-2v1h-1v1h-1v-1h-1v1h1v1h-1v1h-1v1h1v1h-1v1h-1v2h1v2h-1v-1	h-1v-1h-1v-1h-1v1h1v1h1v1h-1v1h1v1h1v1h-1v1h-1v1h-1v1h1v1h-1v1h-1v-1h-1v1h1v1h1	v1h1v1h-1v1h-1v1h1v1h1v1h-1v1h-1v1h1v-1h1v1h1v1h1v-1h1v1h1v-1h1v1h1v-1h2v1h1	v-1h2v1h1v-1h1v1h1v1h1v-1h-1v-1h2v1h1v1h1v-1h-1v-1h2v2h1v1h1v-1h-1v-2h1v1h1v1h1	v1h1v-1h1v1h1v-1h2v2h1v-1h3v1h2v-1h1v1h1v-1h2v-1h1v1h1v-2h1v1h1v-1h1v1h1v-1h1v1	h1v-1h1v-1h3v1h1v-1h1v1h1v-1h1v-1h1v1h1v-2h-1v-1h-1v-1h1v-3h-2v-1h1v-3h-2v-1h1	v-2h-1v-1h1v-1h-1v-2h-1v-2h-1v-1h1v-1h-1v-1h-1v-2h-1v-1h-1v-1h-1v-3h-2v-1h-1	v-2h-1v-1h-1v-1h-1v-1h-2v-2h-2v-1h-3v-1h1v-1h-1v-1h-1v-1h-1v-1h-1v1h-1v-2h-1v1	h-1v-2h-1v-1h-1v1h-1v-1h-1v1h-1v1h-1v-1h-1zM128 49v1h1v-1h-1zM148 30v1h1v-1h-1zM143 35v1h1v-1h-1zM65 50v1h1v-1h-1zM68 50v1h1v-1h-1zM62 52v1h1v-1h-1zM60 53v1h1v-1h-1zM125 54v1h-1v1h1v-1h1v-1h-1zM62 55v1h1v-1h-1zM58 57v1h1v-1h-1zM56 58v1h1v-1h-1zM58 59v1h1v-1h-1zM51 60v1h1v1h1v-2h-2zM120 61v1h1v-1h-1zM51 62v1h1v-1h-1zM56 63v1h1v-1h-1zM119 63v1h1v-1h-1zM146 37v1h1v-1h-1zM153 32v1h1v-1h-1zM49 64v1h1v-1h-1zM51 64v1h1v-1h-1zM53 64v1h1v-1h-1zM48 66v1h1v-1h-1zM50 66v1h1v-1h-1zM52 66v1h1v-1h-1zM117 66v1h1v-1h-1zM47 67v1h1v-1h-1zM49 68v1h1v-1h-1zM117 68v1h1v-1h-1zM51 69v1h1v-1h-1zM118 69v1h1v-1h-1zM49 70v1h1v-1h-1zM116 70v1h1v-1h-1zM44 71v1h1v-1h-1zM47 71v1h1v-1h-1zM116 72v1h1v-1h-1zM43 73v1h1v-1h-1zM45 73v1h1v-1h-1zM48 73v1h1v-1h-1zM51 74v1h1v-1h-1zM114 74v1h1v-1h-1zM43 75v1h1v-1h-1zM45 75v1h1v-1h-1zM41 76v1h1v-1h-1zM115 76v1h1v-1h-1zM42 77v1h1v-1h-1zM44 77v1h1v-1h-1zM116 77v1h1v-1h-1zM40 78v1h1v-1h-1zM114 78v1h1v-1h-1zM165 37v1h1v-1h-1zM39 79v1h1v-1h-1zM43 79v1h1v-1h-1zM38 80v1h1v-1h-1zM41 80v1h1v-1h-1zM113 80v1h1v-1h-1zM115 80v1h1v-1h-1zM167 38v1h1v-1h-1zM39 81v1h1v-1h-1zM42 81v1h1v-1h-1zM44 81v1h1v-1h-1zM47 81v1h1v-1h-1zM116 81v1h1v-1h-1zM167 40v1h1v-1h-1zM40 82v1h1v-1h-1zM39 83v1h1v-1h-1zM43 83v1h1v-1h-1zM108 83v1h1v-1h-1zM115 83v1h1v-1h-1zM38 84v1h1v-1h-1zM113 84v1h1v-1h-1zM171 38v1h-1v1h1v-1h1v-1h-1zM168 42v1h1v-1h-1zM39 85v1h1v-1h-1zM41 85v1h1v-1h-1zM114 85v1h1v-1h-1zM116 85v1h1v-1h-1zM118 85v1h1v-1h-1zM171 43v1h1v-1h-1zM171 45v1h1v-1h-1zM40 87v1h1v-1h-1zM42 87v1h1v-1h-1zM103 87v1h1v-1h-1zM38 88v1h1v-1h-1zM35 89v1h1v-1h-1zM39 89v1h1v-1h-1zM104 89v1h1v-1h-1zM37 90v1h-1v1h-1v2h2v-1h-1v-1h1v-1h1v-1h-1zM40 90v1h1v-1h-1zM39 91v1h1v-1h-1zM97 91v1h-1v1h1v-1h1v-1h-1zM108 91v1h2v-1h-2zM117 92v1h1v-1h-1zM173 47v1h1v-1h-1zM120 91v1h1v-1h-1zM174 49v1h1v-1h-1zM176 50v1h1v-1h-1zM32 93v1h1v-1h-1zM38 93v1h1v-1h-1zM40 93v1h1v-1h-1zM33 95v1h-1v1h1v-1h1v-1h-1zM35 95v1h1v-1h-1zM40 95v1h1v-1h-1zM42 96v1h1v-1h-1zM34 97v1h1v-1h-1zM38 97v1h1v-1h-1zM30 98v1h1v-1h-1zM32 98v1h1v-1h-1zM43 98v1h1v-1h-1zM27 99v2h1v-2h-1zM34 99v1h-1v1h1v-1h1v-1h-1zM36 99v1h1v-1h-1zM103 99v1h1v-1h-1zM182 53v1h1v-1h-1zM182 55v1h1v-1h-1zM29 100v2h1v-2h-1zM31 100v1h1v-1h-1zM34 101v1h1v-1h-1zM39 101v1h1v-1h-1zM43 101v1h1v-1h-1zM30 102v1h-1v1h2v-2h-1zM32 102v1h1v-1h-1zM33 104v1h1v-1h-1zM36 104v1h1v-1h-1zM40 104v1h1v-1h-1zM31 105v1h1v-1h-1zM38 105v1h1v-1h-1zM33 106v1h-1v1h1v-1h1v-1h-1zM36 106v1h-1v1h1v-1h1v-1h-1zM101 106v1h1v-1h-1zM30 107v1h-1v1h1v-1h1v-1h-1zM38 107v1h1v-1h-1zM100 108v1h1v-1h-1zM102 108v1h1v-1h-1zM26 109v1h1v-1h-1zM30 109v1h1v-1h-1zM40 109v1h1v-1h-1zM28 110v1h-1v1h1v-1h1v-1h-1zM31 110v1h1v-1h-1zM33 110v1h1v-1h-1zM36 110v1h1v-1h-1zM25 111v1h1v-1h-1zM23 112v1h1v-1h-1zM29 112v1h1v-1h-1zM32 112v1h1v-1h-1zM24 113v1h1v-1h-1zM26 113v1h1v-1h-1zM30 113v1h1v-1h-1zM28 114v1h1v-1h-1zM33 114v1h1v-1h-1zM97 114v1h1v-1h-1zM101 114v1h1v-1h-1zM24 115v1h-1v1h1v-1h1v-1h-1zM26 115v1h1v-1h-1zM31 115v1h1v-1h-1zM35 115v1h1v-1h-1zM28 116v1h1v-1h-1zM111 116v1h1v-1h-1zM24 117v1h1v-1h-1zM31 117v1h1v-1h-1zM36 117v1h1v-1h-1zM58 117v1h1v-1h-1zM113 117v1h1v-1h-1zM117 117v1h1v-1h-1zM184 60v1h1v-1h-1zM22 118v1h-1v1h1v-1h1v-1h-1zM25 119v1h1v-1h-1zM30 119v1h1v-1h-1zM33 119v1h1v-1h-1zM106 119v1h1v-1h-1zM116 119v1h-1v1h1v1h1v-1h-1v-1h1v-1h-1zM23 120v1h1v-1h-1zM28 120v1h1v-1h-1zM110 120v1h1v-1h-1zM112 120v1h1v-1h-1zM119 117v1h1v-1h-1zM149 88v1h1v-1h-1zM118 119v1h1v-1h-1zM185 62v1h1v-1h-1zM34 121v1h1v-1h-1zM113 121v1h1v-1h-1zM121 117v1h1v-1h-1zM120 119v1h-1v1h-1v1h1v1h-2v1h-1v-1h-1v1h1v1h1v1h-1v1h-1v1h-1v-1h-1v1h1v1h1v1	h-1v1h-1v-1h-1v-1h-1v-1h-1v1h1v1h1v1h1v1h-1v1h1v1h1v1h-1v1h-1v1h1v-1h1v1h1v1h1v1	h-1v1h1v1h2v1h-1v1h-1v1h1v-1h1v-1h1v2h-1v1h1v1h1v1h1v1h-1v1h1v-1h1v-1h1v-1h-1	v-1h2v1h1v-1h1v1h1v1h-1v1h1v1h1v1h1v-1h-1v-1h-1v-1h1v-1h1v-1h-1v-1h-1v-1h1v-1h1	v-1h-1v-1h1v-1h-1v1h-1v1h1v1h-1v1h-1v1h-1v-2h-1v-1h-1v-1h1v-2h1v-1h1v-1h-1v-1	h2v1h1v-1h1v-1h1v1h1v-1h1v-1h1v1h1v1h-1v1h1v-1h1v-1h1v1h1v-1h1v1h1v1h-1v1h-1v1	h1v1h-1v1h1v1h1v1h1v-1h-1v-1h2v-2h1v3h2v-1h1v1h1v2h-1v1h-1v1h-1v-1h-1v-1h-1v1	h-1v-1h-1v1h-1v-1h-1v-1h-1v1h1v1h-1v1h-1v-1h-1v1h-1v-1h-1v-1h1v-1h-1v-1h-1v1h-1	v1h-1v1h1v1h1v1h-1v1h-1v1h1v1h1v1h-1v1h-1v1h-1v1h1v1h1v-1h-1v-1h1v-1h1v1h1v1h-1	v1h1v-1h1v2h-1v1h1v2h1v-2h1v3h-1v1h1v-1h1v-3h1v4h-1v1h1v1h1v-1h1v-1h1v1h1v-1h1	v1h1v1h-1v1h1v1h1v1h1v-1h1v1h1v1h1v-1h2v1h-1v1h-1v1h-1v1h1v1h1v-1h-1v-1h1v-1h1	v1h1v1h-1v1h1v-1h1v1h1v-1h-1v-1h1v-1h1v1h1v-1h1v-1h-1v1h-1v-3h1v1h1v-1h1v1h1v1	h-1v1h1v-1h1v1h1v-1h1v1h1v-1h1v-1h-1v-1h-1v-2h1v-1h1v-1h1v-2h1v-1h-1v-2h1v-1h1	v-1h-1v-1h-1v-1h2v-1h1v-1h-1v-1h-1v1h1v1h-2v-3h1v-3h1v-1h1v-1h-1v-1h-1v-1h1v-1	h-1v-1h1v-1h-1v-1h-1v1h-1v1h-1v2h-1v2h-1v-1h-1v-1h1v-3h-1v-1h1v-1h-1v-1h1v-1h1	v1h1v-1h1v1h1v-1h1v1h2v1h1v1h1v2h1v1h-1v1h-1v1h1v1h1v2h-1v1h1v1h1v-1h1v-1h-1	v-1h2v-1h-1v-2h1v-2h1v-1h-1v-1h1v-1h1v1h1v-1h1v-1h-1v-2h1v-2h-1v-1h1v-2h1v-1h-1	v-1h1v-1h-1v-1h1v-2h-1v-1h1v-7h-1v-1h-1v1h-10v-1h-1v1h-1v-2h-1v1h-1v-2h-1v-1h-1	v-4h-1v-3h-1v-1h-1v-2h-1v-1h-1v-1h-2v-1h-1v1h-1v1h-1v3h-1v1h1v1h-1v1h-1v2h-1v2	h-1v1h-1v1h1v1h-1v1h-1v1h1v1h1v-1h-1v-1h1v-1h1v1h1v1h-1v1h1v1h-1v1h-1v-1h-1v1	h-2v1h1v1h-2v-1h-1v-1h-1v1h1v1h-1v1h-1v1h1v1h1v1h1v1h1v-1h-1v-1h-1v-1h-1v-1h1	v-1h1v2h1v1h1v-1h1v-1h1v2h1v-2h1v2h1v1h1v-1h1v2h-1v1h1v-1h1v-2h1v3h-1v1h1v1h-2	v-1h-2v-1h-1v-1h-1v1h1v1h-1v1h1v1h-1v1h-1v-1h-1v-1h-1v1h-1v-1h-1v1h-1v1h1v1h1v2	h-1v-1h-1v-1h-1v-1h-1v-1h-1v1h1v1h1v1h-1v1h-1v-2h-1v-1h-1v-1h1v-1h-1v-1h-1v-1	h-1v1h-1v-1h-1v-1h1v-1h1v-1h-1v-1h-1v-2h-1v-2h-1v2h-1v-1h-1v1h-1v-1h-2v1h-1v-1	h-1v1h-1v1h-2zM185 64v1h1v-1h-1zM187 63v1h1v-1h-1zM31 122v1h1v-1h-1zM108 123v1h1v-1h-1zM19 124v1h1v-1h-1zM21 124v1h1v-1h-1zM26 124v1h1v-1h-1zM30 124v1h1v-1h-1zM32 124v1h1v-1h-1zM35 124v1h1v-1h-1zM111 124v1h1v-1h-1zM113 124v1h1v-1h-1zM144 97v1h1v-1h-1zM186 65v1h1v-1h-1zM23 125v1h1v-1h-1zM114 125v1h1v-1h-1zM188 65v1h1v-1h-1zM19 126v1h-1v1h1v-1h1v-1h-1zM21 126v1h1v-1h-1zM27 126v1h1v-1h-1zM34 126v1h1v-1h-1zM108 126v1h-1v1h1v-1h1v-1h-1zM24 127v1h1v-1h-1zM111 127v1h1v-1h-1zM187 67v1h1v-1h-1zM190 65v1h1v-1h-1zM186 70v1h1v-1h-1zM157 90v1h-1v1h1v-1h1v-1h-1zM190 67v1h1v-1h-1zM19 128v2h1v-2h-1zM21 128v1h1v-1h-1zM22 129v1h1v-1h-1zM28 129v1h1v-1h-1zM100 129v1h1v-1h-1zM20 130v1h1v-1h-1zM23 130v1h1v-1h-1zM101 130v1h1v-1h-1zM108 130v1h1v-1h-1zM132 116v2h1v-2h-1zM19 131v1h1v-1h-1zM58 131v1h1v-1h-1zM110 131v1h-1v1h1v-1h1v-1h-1zM156 93v1h1v-1h-1zM186 73v1h1v-1h-1zM134 116v1h1v-1h-1zM191 69v1h1v-1h-1zM188 72v1h1v-1h-1zM17 132v1h1v-1h-1zM22 132v1h1v-1h-1zM24 132v1h1v-1h-1zM55 132v1h1v-1h-1zM107 132v1h1v-1h-1zM156 95v1h1v-1h-1zM136 115v1h1v-1h-1zM190 71v1h1v-1h-1zM186 75v1h1v-1h-1zM135 117v1h-1v1h-1v1h1v-1h1v-1h1v-1h-1zM194 68v1h1v-1h-1zM189 73v1h1v-1h-1zM18 133v1h1v-1h-1zM20 133v1h1v-1h-1zM25 133v1h1v-1h-1zM57 133v1h1v-1h-1zM105 133v1h1v-1h-1zM110 133v1h1v-1h-1zM193 70v1h-1v1h-1v1h1v1h1v1h1v-1h-1v-1h-1v-1h1v-1h1v-1h-1zM23 134v1h-1v1h1v-1h1v-1h-1zM108 134v1h1v-1h-1zM190 74v1h1v-1h-1zM179 85v1h1v-1h-1zM111 134v1h-1v1h1v-1h1v-1h-1zM137 118v1h-1v1h-1v1h1v-1h1v-1h1v-1h-1zM17 135v1h1v-1h-1zM20 135v1h1v-1h-1zM25 136v1h1v-1h-1zM108 136v1h1v-1h-1zM190 76v1h1v-1h-1zM181 85v1h1v-1h-1zM143 114v1h-1v1h1v-1h1v-1h-1zM179 88v1h1v-1h-1zM19 137v1h1v-1h-1zM21 137v1h1v-1h-1zM23 137v1h1v-1h-1zM31 137v1h1v-1h-1zM60 137v1h1v-1h-1zM109 137v1h1v-1h-1zM192 76v1h1v-1h-1zM190 78v1h1v-1h-1zM183 85v1h1v-1h-1zM111 138v1h1v-1h-1zM181 88v1h1v-1h-1zM18 139v1h1v-1h-1zM20 139v1h1v-1h-1zM22 139v1h1v-1h-1zM25 139v1h-1v1h1v-1h1v-1h-1zM100 139v1h1v-1h-1zM109 139v1h1v-1h-1zM193 77v1h1v-1h-1zM184 86v1h1v-1h-1zM113 138v1h1v-1h-1zM136 121v1h1v-1h-1zM138 121v1h1v-1h-1zM179 92v1h1v-1h-1zM134 122v1h1v-1h-1zM195 77v1h1v-1h-1zM186 86v1h1v-1h-1zM182 90v1h-1v1h1v1h1v1h-2v-1h-1v1h1v1h-1v3h1v1h-1v1h-1v1h1v1h2v2h-1v1h1v1h-1v1	h1v-1h1v1h2v-1h-1v-1h1v-1h1v-4h1v-8h-1v-1h-2v1h-2v-1h1v-1h-1zM113 140v1h1v-1h-1zM136 123v1h1v-1h-1zM138 123v1h-1v1h1v-1h1v-1h-1zM140 123v1h1v-1h-1zM193 80v1h1v-1h-1zM188 86v1h-1v1h-1v1h1v-1h1v-1h1v-1h-1zM178 96v1h1v-1h-1zM19 141v1h1v-1h-1zM21 141v1h1v-1h-1zM26 141v1h1v-1h-1zM33 141v1h1v-1h-1zM100 141v1h1v-1h-1zM114 141v1h1v-1h-1zM138 125v1h1v-1h-1zM140 125v1h-1v1h1v-1h1v-1h-1zM197 78v1h1v-1h-1zM193 82v1h1v-1h-1zM142 124v1h1v-1h-1zM190 86v1h1v-1h-1zM178 98v1h1v-1h-1zM195 82v1h1v-1h-1zM193 84v1h1v-1h-1zM187 90v1h1v-1h-1zM144 122v1h1v1h-1v1h1v1h1v-1h-1v-1h1v-1h-1v-1h-1zM188 88v1h1v1h2v-2h-3zM194 85v1h1v-1h-1zM188 91v1h1v-1h-1zM190 91v1h-1v1h1v-1h1v-1h-1zM188 94v1h1v-1h-1zM188 96v1h1v-1h-1zM197 88v1h1v-1h-1zM188 98v1h1v-1h-1zM198 89v1h2v-1h-2zM196 92v1h1v-1h-1zM201 88v1h1v-1h-1zM198 91v1h1v-1h-1zM22 142v1h1v-1h-1zM24 142v1h1v-1h-1zM58 142v1h1v-1h-1zM18 143v1h1v-1h-1zM20 143v1h1v-1h-1zM31 143v1h1v-1h-1zM24 144v1h1v-1h-1zM20 145v1h1v-1h-1zM27 145v1h1v-1h-1zM22 146v1h1v-1h-1zM19 147v1h1v-1h-1zM26 147v1h-1v1h1v-1h1v-1h-1zM23 148v1h1v-1h-1zM15 150v1h1v-1h-1zM17 150v1h1v-1h-1zM20 150v1h1v-1h-1zM24 150v1h-1v1h1v-1h1v-1h-1zM97 151v1h1v-1h-1zM122 149v1h1v-1h-1zM197 94v1h1v-1h-1zM15 152v1h1v-1h-1zM18 152v1h1v-1h-1zM16 153v1h1v-1h-1zM20 153v1h1v-1h-1zM24 153v1h1v-1h-1zM97 153v1h1v-1h-1zM196 96v1h1v-1h-1zM124 147v1h1v-1h-1zM197 98v1h-1v1h1v-1h1v-1h-1zM125 139v1h1v-1h1v-1h-1v1h-1zM125 141v1h1v-1h-1zM125 149v1h1v1h1v-1h-1v-1h-1zM199 97v1h1v-1h-1zM200 99v1h-1v1h1v1h1v-1h-1v-1h1v-1h-1zM18 154v1h1v-1h-1zM27 154v1h1v-1h-1zM15 155v1h1v-1h-1zM22 155v1h1v-1h-1zM24 155v1h1v-1h-1zM35 155v1h1v-1h-1zM18 156v1h1v-1h-1zM26 156v1h1v-1h-1zM14 157v1h1v-1h-1zM16 157v1h1v-1h-1zM20 157v1h1v-1h-1zM18 158v1h-1v1h-1v1h1v-1h1v-1h1v-1h-1zM21 158v1h1v-1h-1zM14 159v1h1v-1h-1zM20 160v1h1v-1h-1zM25 160v1h1v-1h-1zM96 160v1h1v-1h-1zM197 103v1h1v-1h-1zM194 106v1h1v-1h-1zM28 161v1h1v-1h-1zM17 162v1h1v-1h-1zM21 162v1h-1v1h-1v1h1v-1h1v-1h1v-1h-1zM23 162v1h1v-1h-1zM26 162v1h1v-1h-1zM96 162v1h-1v1h1v-1h1v-1h-1zM202 101v1h-1v1h1v-1h1v-1h-1zM199 104v1h1v-1h-1zM22 164v1h1v-1h-1zM96 164v1h1v-1h-1zM204 100v1h1v-1h-1zM198 106v1h1v-1h-1zM130 140v1h1v-1h-1zM130 155v1h1v-1h-1zM201 104v1h1v-1h-1zM197 109v1h1v-1h-1zM203 102v1h1v-1h-1zM201 106v1h-1v1h-1v1h1v-1h1v-1h1v-1h-1zM197 112v1h1v-1h-1zM192 117v1h1v-1h-1zM200 110v1h-1v1h1v-1h1v-1h-1zM16 165v1h1v-1h-1zM42 165v1h1v-1h-1zM19 166v1h1v-1h-1zM27 166v1h1v-1h-1zM16 167v1h1v-1h-1zM22 167v1h1v-1h-1zM44 167v1h1v-1h-1zM14 168v1h1v-1h-1zM18 168v1h1v-1h-1zM20 168v1h1v-1h-1zM24 168v1h1v-1h-1zM29 168v1h1v-1h-1zM15 169v1h1v-1h-1zM21 169v1h1v-1h-1zM17 170v1h-1v1h1v-1h1v-1h-1zM19 170v1h1v-1h-1zM22 170v1h1v-1h-1zM95 170v1h-1v1h1v-1h1v-1h-1zM202 108v1h1v-1h-1zM202 110v1h1v-1h-1zM26 171v1h-1v1h1v-1h1v-1h-1zM18 172v1h1v-1h-1zM20 172v1h1v-1h-1zM22 172v1h1v-1h-1zM28 172v1h1v-1h-1zM38 172v1h1v-1h-1zM31 173v1h1v-1h-1zM94 173v3h-1v1h1v-1h1v-3h-1zM18 174v1h1v-1h-1zM20 174v1h1v-1h-1zM23 174v1h1v-1h-1zM29 175v1h1v-1h-1zM32 175v1h1v-1h-1zM18 176v1h1v-1h-1zM20 176v1h1v-1h-1zM21 177v1h1v-1h-1zM31 177v1h1v-1h-1zM22 178v1h1v-1h-1zM24 178v1h1v-1h-1zM45 178v1h-1v1h1v-1h1v-1h-1zM21 179v1h1v-1h-1zM26 179v1h1v-1h-1zM20 180v1h1v-1h-1zM94 180v1h2v-1h-2zM21 181v1h1v-1h-1zM23 181v1h1v-1h-1zM25 181v1h1v-1h-1zM28 181v1h1v-1h-1zM67 181v1h1v-1h-1zM29 182v1h1v-1h-1zM40 182v1h1v-1h-1zM64 182v1h1v-1h-1zM105 182v1h1v-1h-1zM107 182v1h1v-1h-1zM197 116v1h1v-1h-1zM25 183v1h1v-1h-1zM94 183v1h1v-1h-1zM109 183v1h1v-1h-1zM202 112v1h1v-1h-1zM19 184v1h1v-1h-1zM23 184v1h1v-1h-1zM29 184v1h1v-1h-1zM41 184v1h1v-1h-1zM107 184v1h1v-1h-1zM111 184v1h1v-1h-1zM200 115v1h1v-1h-1zM20 185v1h1v-1h-1zM26 185v1h1v-1h-1zM52 185v1h1v-1h-1zM94 185v2h-1v1h-1v1h1v-1h1v-1h1v-2h-1zM105 185v1h1v-1h-1zM109 185v1h1v-1h-1zM202 114v1h1v-1h-1zM198 118v1h-1v1h1v-1h1v-1h-1zM27 186v1h1v-1h-1zM48 186v1h1v-1h-1zM107 186v1h1v-1h-1zM134 137v1h1v1h-1v1h1v-1h1v-1h-1v-1h-1zM134 142v1h1v-1h-1zM135 162v1h1v-1h-1zM111 186v1h-1v1h-1v1h1v1h1v-1h-1v-1h1v-1h1v-1h-1zM113 185v1h1v-1h-1zM202 116v1h1v-1h-1zM136 136v1h1v-1h-1zM166 135v1h1v-1h-1zM167 137v1h1v-1h-1zM175 137v1h1v-1h-1zM20 187v1h1v-1h-1zM22 187v1h1v-1h-1zM104 187v1h1v-1h-1zM199 120v1h1v-1h-1zM26 188v1h1v-1h-1zM45 188v1h1v-1h-1zM95 188v2h1v-2h-1zM106 188v1h1v-1h-1zM113 187v1h1v-1h-1zM21 189v1h1v-1h-1zM48 189v1h1v-1h-1zM93 189v1h1v-1h-1zM102 189v1h1v-1h-1zM104 189v1h1v-1h-1zM107 189v1h1v-1h-1zM138 163v1h1v-1h-1zM140 162v1h1v-1h-1zM115 187v1h1v-1h-1zM23 190v2h1v-2h-1zM25 190v1h1v-1h-1zM91 190v1h-1v1h1v-1h1v-1h-1zM96 190v1h1v-1h-1zM108 190v1h-1v1h1v-1h1v-1h-1zM204 118v1h1v-1h-1zM202 120v1h1v-1h-1zM117 186v1h1v-1h-1zM200 123v1h1v-1h-1zM190 133v1h1v-1h-1zM95 191v1h-1v1h1v-1h1v-1h-1zM105 191v1h-1v1h1v-1h1v-1h-1zM203 121v1h1v-1h-1zM141 164v1h1v-1h-1zM117 188v1h1v-1h-1zM43 192v1h1v-1h-1zM100 192v1h1v-1h-1zM102 192v1h1v-1h-1zM109 192v1h1v-1h-1zM200 125v1h1v-1h-1zM196 129v1h1v-1h-1zM22 193v1h1v-1h-1zM91 193v1h1v-1h-1zM105 193v1h1v-1h-1zM204 122v1h1v-1h-1zM202 124v1h1v-1h-1zM142 165v1h1v-1h-1zM118 189v1h1v-1h-1zM110 193v1h1v-1h-1zM200 127v1h-1v1h1v-1h1v-1h-1zM192 135v1h1v-1h-1zM24 194v1h1v-1h-1zM27 194v1h-1v1h-1v1h1v-1h1v-1h1v-1h-1zM29 194v1h1v-1h-1zM60 194v1h1v-1h-1zM85 194v1h1v-1h-1zM94 194v1h-1v1h1v-1h1v-1h-1zM100 194v1h1v-1h-1zM103 194v1h-1v1h1v-1h1v-1h-1zM21 195v1h1v-1h-1zM105 195v1h-1v1h1v-1h1v-1h-1zM121 187v1h1v-1h-1zM204 124v1h1v-1h-1zM202 126v1h1v-1h-1zM143 142v1h1v-1h-1zM143 166v1h1v-1h-1zM199 130v1h-1v1h1v-1h1v-1h-1zM44 196v1h1v-1h-1zM99 196v1h1v-1h-1zM19 197v1h1v-1h-1zM27 197v1h1v-1h-1zM29 197v1h1v-1h-1zM85 197v1h1v-1h-1zM92 197v1h1v-1h-1zM100 197v1h1v-1h-1zM102 197v1h1v-1h-1zM105 197v1h1v-1h-1zM107 197v1h1v-1h-1zM142 168v1h1v-1h-1zM120 190v1h-1v1h1v1h1v-1h-1v-1h1v-1h-1zM202 128v1h1v-1h-1zM145 166v1h1v-1h-1zM123 188v1h1v-1h-1zM205 126v1h-1v1h1v-1h2v-1h-2zM201 130v1h1v-1h-1zM198 133v1h1v-1h-1zM195 136v1h1v-1h-1zM20 198v1h1v-1h-1zM22 198v1h1v-1h-1zM103 198v1h-1v1h1v-1h1v-1h-1zM17 199v1h1v-1h-1zM19 199v1h1v-1h-1zM26 199v1h1v-1h-1zM28 199v1h1v-1h-1zM41 199v1h1v-1h-1zM86 199v1h-1v1h1v-1h1v-1h-1zM91 199v1h-1v1h1v-1h1v-1h-1zM94 199v1h1v-1h-1zM97 199v1h2v-1h-2zM100 199v1h1v-1h-1zM105 199v1h1v-1h-1zM203 129v1h1v-1h-1zM200 132v1h1v-1h-1zM197 135v1h1v-1h-1zM145 168v1h1v-1h-1zM124 190v1h1v-1h-1zM204 130v1h-1v1h-1v1h1v-1h1v-1h1v-1h-1zM167 139v1h1v-1h-1zM167 144v1h1v-1h-1zM166 146v1h1v-1h-1zM168 142v1h1v-1h-1zM168 146v1h1v-1h-1zM145 170v1h1v-1h-1zM200 135v1h1v-1h-1zM196 139v1h1v-1h-1zM202 134v1h1v-1h-1zM198 138v1h1v-1h-1zM168 148v1h1v-1h-1zM24 200v1h1v-1h-1zM38 200v1h-1v1h-1v1h-1v1h-1v2h1v1h-2v1h1v1h2v-1h-1v-1h2v1h2v-1h1v-1h-1v-3h1v1h1	v-1h1v-1h-1v-1h-2v-1h-1zM95 200v1h1v-1h-1zM16 201v1h1v-1h-1zM25 201v1h1v-1h-1zM64 201v1h1v-1h-1zM87 201v1h1v-1h-1zM91 201v1h1v-1h-1zM96 201v1h1v-1h-1zM98 201v1h1v-1h-1zM100 201v1h1v-1h-1zM102 201v1h1v-1h-1zM200 137v1h1v-1h-1zM167 153v1h1v-1h-1zM165 155v1h1v-1h-1zM166 157v1h1v-1h-1zM177 158v1h1v-1h-1zM127 191v1h1v-1h-1zM204 134v1h1v-1h-1zM202 136v1h1v-1h-1zM198 140v1h1v-1h-1zM196 142v1h-1v1h1v-1h1v-1h-1zM18 202v1h1v-1h-1zM67 202v1h1v-1h-1zM73 202v1h1v-1h-1zM103 202v1h-1v1h1v-1h1v-1h-1zM63 203v1h-1v1h1v-1h1v-1h-1zM93 203v1h1v-1h-1zM100 203v1h1v-1h-1zM148 171v1h1v-1h-1zM205 132v1h1v-1h-1zM206 133v1h1v-1h-1zM130 190v1h-1v1h1v-1h1v-1h-1zM204 136v1h1v-1h-1zM202 138v1h1v-1h-1zM199 141v1h1v-1h-1zM187 153v1h1v-1h-1zM150 171v1h1v-1h-1zM167 159v1h1v-1h-1zM165 160v1h1v-1h-1zM169 160v1h1v-1h-1zM175 160v1h1v-1h-1zM73 204v1h1v-1h-1zM75 204v1h1v-1h-1zM63 205v1h1v-1h-1zM66 205v1h1v-1h-1zM93 205v1h-1v1h1v-1h1v-1h-1zM101 205v1h1v-1h-1zM208 134v1h-1v1h-1v1h-1v1h-1v1h1v-1h1v-1h1v-1h1v-1h1v-1h-1zM202 140v1h1v-1h-1zM152 171v1h1v-1h-1zM201 142v1h1v-1h-1zM199 144v1h1v-1h-1zM196 147v1h1v-1h-1zM151 173v1h1v-1h-1zM204 140v1h2v1h-1v1h1v-1h1v1h1v-1h-1v-1h-1v-1h-2zM195 149v1h1v-1h-1zM154 169v1h1v-1h-1zM154 171v1h1v-1h-1zM149 176v1h1v-1h-1zM134 191v1h1v-1h-1zM206 139v1h1v-1h-1zM203 142v1h1v-1h-1zM201 144v1h1v-1h-1zM199 146v1h1v-1h-1zM192 153v1h1v-1h-1zM163 161v1h1v-1h-1zM166 162v1h1v-1h-1zM162 163v1h2v-1h-2zM168 163v1h1v-1h-1zM174 163v1h1v-1h-1zM156 168v1h1v-1h-1zM156 170v1h1v-1h-1zM151 175v1h1v-1h-1zM198 148v1h1v-1h-1zM189 157v1h1v-1h-1zM207 138v1h1v-1h-1zM203 144v2h1v-2h-1zM201 146v1h1v-1h-1zM171 164v1h1v-1h-1zM164 165v1h1v-1h-1zM168 166v1h1v-1h-1zM173 166v1h1v-1h-1zM175 166v1h1v-1h-1zM155 173v1h1v-1h-1zM200 148v1h1v-1h-1zM205 144v1h1v-1h-1zM158 168v1h2v1h-1v1h1v-1h1v-1h-1v-1h-2zM142 188v1h1v-1h-1zM204 146v1h-1v1h-1v1h1v-1h1v-1h3v-1h-3zM200 150v1h1v-1h-1zM198 152v1h1v-1h-1zM161 168v1h1v1h1v-1h-1v-1h-1zM163 167v1h1v-1h-1zM166 168v1h1v-1h-1zM170 168v1h1v-1h-1zM174 168v1h1v-1h-1zM164 169v1h1v-1h-1zM168 169v1h1v-1h-1zM175 169v1h1v-1h-1zM159 172v1h1v-1h-1zM211 138v1h1v-1h-1zM207 144v2h1v-2h-1zM196 155v1h1v-1h-1zM188 163v1h1v-1h-1zM183 168v1h1v-1h-1zM23 206v1h1v-1h-1zM30 206v1h1v-1h-1zM61 206v1h1v-1h-1zM62 207v1h1v-1h-1zM61 208v1h1v-1h-1zM94 208v1h1v-1h-1zM202 150v1h1v-1h-1zM200 152v1h1v-1h-1zM198 154v1h1v-1h-1zM195 157v1h1v-1h-1zM174 170v1h-1v1h-1v1h1v-1h1v-1h1v-1h-1zM162 171v1h1v-1h-1zM164 171v1h1v-1h-1zM166 171v1h1v-1h-1zM168 171v1h1v-1h-1zM176 172v1h1v-1h-1zM160 173v1h1v-1h-1zM209 142v1h1v-1h-1zM191 162v1h1v-1h-1zM55 209v1h1v-1h-1zM62 209v1h-1v1h1v-1h1v-1h-1zM22 210v1h1v-1h-1zM57 210v1h1v-1h-1zM59 210v1h1v-1h-1zM63 210v2h1v-2h-1zM96 210v1h1v-1h-1zM146 188v1h1v-1h-1zM200 154v1h1v-1h-1zM186 168v1h1v-1h-1zM162 173v1h1v-1h-1zM160 175v1h1v-1h-1zM149 186v1h-1v1h1v-1h1v-1h-1zM194 161v1h1v-1h-1zM190 165v1h1v-1h-1zM188 167v1h1v-1h-1zM185 170v1h1v-1h-1zM164 173v1h1v-1h-1zM163 175v1h1v-1h-1zM166 173v1h1v-1h-1zM169 173v1h1v-1h-1zM167 174v1h1v-1h-1zM170 174v1h1v-1h-1zM168 175v1h-1v1h1v-1h1v-1h-1zM173 175v1h1v-1h-1zM170 176v1h1v-1h-1zM177 176v1h1v-1h-1zM197 159v1h1v-1h-1zM187 169v1h1v-1h-1zM151 186v1h1v-1h-1zM200 157v1h1v-1h-1zM192 165v1h1v-1h-1zM189 168v1h1v-1h-1zM161 177v1h1v-1h-1zM202 156v1h1v-1h-1zM196 162v1h1v-1h-1zM191 167v1h1v-1h-1zM188 170v1h1v-1h-1zM163 177v1h1v-1h-1zM174 177v1h1v-1h-1zM167 178v1h-1v1h1v-1h1v-1h-1zM178 178v1h-1v1h1v-1h1v-1h-1zM200 159v1h1v-1h-1zM198 161v1h1v-1h-1zM190 169v1h1v-1h-1zM204 156v1h-1v1h1v1h1v-1h-1v-1h1v-1h-1zM193 167v1h-1v1h1v-1h1v-1h-1zM162 179v1h1v-1h-1zM215 142v1h1v-1h-1zM202 159v1h1v-1h-1zM191 170v1h-1v1h-1v1h1v1h1v1h-1v1h1v-1h1v-1h-1v-3h1v-1h-1zM164 179v1h1v-1h-1zM179 180v1h1v-1h-1zM54 211v1h1v-1h-1zM85 211v1h1v-1h-1zM201 161v1h1v-1h-1zM198 164v1h1v-1h-1zM160 183v1h1v-1h-1zM197 166v1h-1v1h-1v1h1v-1h1v-1h1v-1h-1zM163 181v1h1v-1h-1zM165 181v1h1v-1h-1zM170 182v1h1v-1h-1zM175 182v1h1v-1h-1zM204 160v1h1v-1h-1zM194 170v1h-1v1h-1v1h1v-1h1v-1h1v-1h-1zM182 182v1h-1v1h1v-1h1v-1h-1zM203 162v1h1v-1h-1zM185 180v1h1v-1h-1zM205 161v1h1v-1h-1zM202 164v1h1v-1h-1zM199 167v1h1v-1h-1zM197 170v1h-1v1h1v-1h1v-1h-1zM189 178v1h1v-1h-1zM165 183v1h1v-1h-1zM168 183v1h-1v2h2v1h1v-1h1v-1h-1v-1h-1v-1h-1zM172 185v1h1v-1h-1zM164 187v1h1v-1h-1zM166 187v1h-1v1h1v-1h1v-1h-1zM177 187v1h1v-1h-1zM203 166v1h-1v1h1v2h-1v-1h-1v1h1v1h-1v1h1v1h1v1h1v-1h-1v-1h-1v-1h1v-1h1v-2h-1	v-1h1v-1h-1zM193 174v1h1v-1h-1zM179 188v1h1v-1h-1zM197 173v1h1v-1h-1zM187 183v1h1v-1h-1zM199 173v1h1v-1h-1zM189 184v1h1v-1h-1zM180 191v1h1v-1h-1zM205 169v1h1v-1h-1zM200 174v1h1v-1h-1zM56 212v1h1v-1h-1zM64 212v1h1v-1h-1zM61 213v1h1v-1h-1zM22 214v1h-1v1h1v-1h1v-1h-1zM57 214v1h-1v1h-1v1h1v-1h1v-1h1v-1h-1zM50 215v1h-1v1h1v-1h1v-1h-1zM71 215v1h1v-1h-1zM42 220v1h1v-1h-1zM68 221v1h1v-1h-1zM71 221v1h1v-1h-1zM25 222v1h1v-1h-1zM83 222v1h1v-1h-1zM198 177v1h1v-1h-1zM200 176v1h1v-1h-1zM204 171v1h1v-1h-1zM198 179v1h1v-1h-1zM201 177v1h-1v1h1v1h-1v1h1v1h-1v1h1v-1h1v-1h-1v-1h1v-1h1v-1h-1v-1h-1zM198 181v2h1v-2h-1zM198 184v1h1v-1h-1zM202 183v1h1v-1h-1zM199 185v2h1v-2h-1zM203 182v1h1v-1h-1zM199 188v1h1v-1h-1zM6 227v1h1v-1h-1zM50 228v1h1v-1h-1zM4 231v1h1v-1h-1zM5 235v1h1v-1h-1zM127 254v1h1v-1h-1zM130 254v1h1v-1h-1zM134 254v1h1v-1h-1zM137 253v1h1v-1h-1zM139 253v1h1v-1h-1zM141 253v1h1v-1h-1zM143 253v1h1v-1h-1zM146 253v1h1v-1h-1zM152 254v1h1v-1h-1zM212 222v1h1v-1h-1zM211 248v1h1v-1h-1zM212 252v1h1v-1h-1zM221 244v1h1v-1h-1z" fill-rule="nonzero"/>
<path d="M112 23h1v1h-1v-1z"/>
<path d="M114 23h1v1h-1v-1z"/>
<path d="M97 24h1v1h1v2h-1v-1h-1v-2z"/>
<path d="M103 24h1v1h-1v-1z"/>
<path d="M104 25h1v1h-1v-1z"/>
<path d="M106 25h1v1h-1v-1z"/>
<path d="M94 26h3v1h-2v1h-1v-2z"/>
<path d="M97 27h1v1h-1v-1z"/>
<path d="M99 27h1v1h-1v-1z"/>
<path d="M146 28h1v1h-1v-1z"/>
<path d="M153 28h2v2h-1v-1h-1v-1z"/>
<path d="M152 29h1v1h-1v-1z"/>
<path d="M90 30h1v1h-1v-1z"/>
<path d="M155 30h3v1h-1v1h-1v-1h-1v-1z"/>
<path d="M83 32h1v1h-1v-1z"/>
<path d="M157 32h1v1h-1v-1z"/>
<path d="M159 32h1v1h-1v-1z"/>
<path d="M166 32h1v1h-1v-1z"/>
<path d="M160 33h1v1h-1v-1z"/>
<path d="M164 33h1v1h-1v-1z"/>
<path d="M167 33h1v1h-1v-1z"/>
<path d="M74 36h1v1h-1v-1z"/>
<path d="M174 37h1v1h-1v-1z"/>
<path d="M73 38h1v1h-1v-1z"/>
<path d="M142 38h1v1h-1v-1z"/>
<path d="M144 38h1v1h-1v-1z"/>
<path d="M72 39h1v1h1v1h-2v-2z"/>
<path d="M139 39h1v2h-1v-2z"/>
<path d="M141 39h1v1h-1v-1z"/>
<path d="M70 40h1v1h-1v-1z"/>
<path d="M142 40h1v1h-1v-1z"/>
<path d="M144 40h1v1h-1v-1z"/>
<path d="M173 40h1v1h1v1h-2v-2z"/>
<path d="M140 41h1v1h-1v-1z"/>
<path d="M145 41h1v1h-1v-1z"/>
<path d="M149 41h1v1h-1v-1z"/>
<path d="M176 41h1v1h-1v-1z"/>
<path d="M67 42h1v1h-1v-1z"/>
<path d="M136 42h1v1h-1v-1z"/>
<path d="M141 42h1v1h-1v-1z"/>
<path d="M143 42h1v1h-1v-1z"/>
<path d="M150 42h1v1h-1v-1z"/>
<path d="M175 42h1v1h-1v-1z"/>
<path d="M135 43h1v1h-1v-1z"/>
<path d="M137 43h1v1h-1v-1z"/>
<path d="M140 43h1v1h-1v-1z"/>
<path d="M151 43h1v1h-1v-1z"/>
<path d="M174 43h1v1h-1v-1z"/>
<path d="M176 43h1v1h-1v-1z"/>
<path d="M62 44h1v1h-1v-1z"/>
<path d="M64 44h1v1h-1v-1z"/>
<path d="M134 44h1v2h-1v-2z"/>
<path d="M136 44h1v2h-1v-2z"/>
<path d="M138 44h1v2h-1v-2z"/>
<path d="M142 44h1v1h-1v-1z"/>
<path d="M178 44h1v1h-1v-1z"/>
<path d="M140 45h1v1h-1v-1z"/>
<path d="M144 45h1v1h-1v-1z"/>
<path d="M179 45h1v1h-1v-1z"/>
<path d="M60 46h1v1h-1v-1z"/>
<path d="M64 46h1v1h-1v-1z"/>
<path d="M133 46h1v1h-1v-1z"/>
<path d="M135 46h1v1h-1v-1z"/>
<path d="M137 46h1v1h-1v-1z"/>
<path d="M139 46h1v1h-1v-1z"/>
<path d="M142 46h1v1h-1v-1z"/>
<path d="M183 46h1v1h-1v-1z"/>
<path d="M63 47h1v1h-1v-1z"/>
<path d="M132 47h1v1h-1v-1z"/>
<path d="M134 47h1v1h-1v-1z"/>
<path d="M136 47h1v1h-1v-1z"/>
<path d="M141 47h1v1h-1v-1z"/>
<path d="M146 47h1v1h-1v-1z"/>
<path d="M180 47h1v1h-1v-1z"/>
<path d="M61 48h1v1h-1v-1z"/>
<path d="M131 48h1v1h-1v-1z"/>
<path d="M133 48h1v1h-1v-1z"/>
<path d="M135 48h1v1h-1v-1z"/>
<path d="M138 48h1v1h-1v-1z"/>
<path d="M140 48h1v1h-1v-1z"/>
<path d="M143 48h1v1h-1v-1z"/>
<path d="M156 48h1v1h-1v-1z"/>
<path d="M182 48h1v1h-1v-1z"/>
<path d="M184 48h1v1h-1v-1z"/>
<path d="M58 49h1v1h-1v-1z"/>
<path d="M62 49h1v1h-1v-1z"/>
<path d="M132 49h1v1h-1v-1z"/>
<path d="M134 49h1v1h-1v-1z"/>
<path d="M136 49h1v1h-1v-1z"/>
<path d="M141 49h1v1h-1v-1z"/>
<path d="M145 49h1v1h-1v-1z"/>
<path d="M158 49h1v1h-1v-1z"/>
<path d="M59 50h1v2h-1v-2z"/>
<path d="M131 50h1v1h-1v-1z"/>
<path d="M133 50h1v1h-1v-1z"/>
<path d="M137 50h1v1h-1v-1z"/>
<path d="M139 50h1v1h-1v-1z"/>
<path d="M143 50h1v1h-1v-1z"/>
<path d="M130 51h1v1h-1v-1z"/>
<path d="M132 51h1v1h-1v-1z"/>
<path d="M134 51h1v1h-1v-1z"/>
<path d="M136 51h1v1h-1v-1z"/>
<path d="M142 51h1v1h-1v-1z"/>
<path d="M146 51h1v1h-1v-1z"/>
<path d="M160 51h1v1h-1v-1z"/>
<path d="M188 51h1v1h-1v-1z"/>
<path d="M57 52h2v1h-2v-1z"/>
<path d="M129 52h1v2h-1v-2z"/>
<path d="M138 52h1v1h-1v-1z"/>
<path d="M140 52h1v1h-1v-1z"/>
<path d="M144 52h1v1h-1v-1z"/>
<path d="M186 52h2v1h1v1h-2v-1h-1v-1z"/>
<path d="M190 52h1v1h-1v-1z"/>
<path d="M131 53h1v1h-1v-1z"/>
<path d="M133 53h1v1h-1v-1z"/>
<path d="M135 53h1v1h-1v-1z"/>
<path d="M141 53h1v1h-1v-1z"/>
<path d="M185 53h1v1h-1v-1z"/>
<path d="M192 53h1v1h-1v-1z"/>
<path d="M57 54h1v1h-1v-1z"/>
<path d="M128 54h1v1h-1v-1z"/>
<path d="M130 54h1v1h-1v-1z"/>
<path d="M137 54h1v1h-1v-1z"/>
<path d="M139 54h1v1h-1v-1z"/>
<path d="M142 54h1v1h-1v-1z"/>
<path d="M144 54h1v1h-1v-1z"/>
<path d="M146 54h1v1h-1v-1z"/>
<path d="M186 54h1v1h-1v-1z"/>
<path d="M189 54h2v1h-1v1h-3v-1h2v-1z"/>
<path d="M129 55h1v1h-1v-1z"/>
<path d="M132 55h1v1h-1v-1z"/>
<path d="M134 55h1v1h-1v-1z"/>
<path d="M136 55h1v1h-1v-1z"/>
<path d="M163 55h1v1h-1v-1z"/>
<path d="M192 55h1v1h-1v-1z"/>
<path d="M128 56h1v2h-1v-2z"/>
<path d="M131 56h1v1h-1v-1z"/>
<path d="M138 56h1v1h-1v-1z"/>
<path d="M140 56h1v1h-1v-1z"/>
<path d="M142 56h1v1h-1v-1z"/>
<path d="M145 56h1v1h-1v-1z"/>
<path d="M186 56h1v1h-1v-1z"/>
<path d="M190 56h1v1h1v1h-2v-2z"/>
<path d="M193 56h1v1h-1v-1z"/>
<path d="M54 57h1v1h-1v-1z"/>
<path d="M126 57h1v1h1v1h-2v1h-1v2h-1v-1h-1v-1h1v-1h1v-1h1v-1z"/>
<path d="M132 57h1v1h-1v-1z"/>
<path d="M134 57h1v1h-1v-1z"/>
<path d="M136 57h1v1h-1v-1z"/>
<path d="M143 57h1v1h-1v-1z"/>
<path d="M187 57h1v1h-1v-1z"/>
<path d="M194 57h1v1h-1v-1z"/>
<path d="M130 58h1v1h-1v-1z"/>
<path d="M137 58h1v1h-1v-1z"/>
<path d="M139 58h1v1h-1v-1z"/>
<path d="M141 58h1v1h-1v-1z"/>
<path d="M146 58h1v1h-1v-1z"/>
<path d="M192 58h2v1h-1v1h-2v1h2v1h-3v-1h-1v-1h1v-1h2v-1z"/>
<path d="M195 58h1v1h-1v-1z"/>
<path d="M129 59h1v1h-1v-1z"/>
<path d="M132 59h1v1h-1v-1z"/>
<path d="M134 59h1v1h-1v-1z"/>
<path d="M136 59h1v1h-1v-1z"/>
<path d="M144 59h1v1h-1v-1z"/>
<path d="M126 60h1v2h-1v-2z"/>
<path d="M128 60h1v1h-1v-1z"/>
<path d="M131 60h1v1h-1v-1z"/>
<path d="M138 60h1v1h-1v-1z"/>
<path d="M140 60h1v1h-1v-1z"/>
<path d="M142 60h1v1h-1v-1z"/>
<path d="M166 60h1v1h-1v-1z"/>
<path d="M194 60h1v2h-1v-2z"/>
<path d="M196 60h1v1h-1v-1z"/>
<path d="M47 61h1v1h-1v-1z"/>
<path d="M129 61h1v1h-1v-1z"/>
<path d="M132 61h1v1h-1v-1z"/>
<path d="M134 61h1v1h-1v-1z"/>
<path d="M136 61h1v1h-1v-1z"/>
<path d="M143 61h1v1h-1v-1z"/>
<path d="M145 61h1v1h-1v-1z"/>
<path d="M147 61h1v1h-1v-1z"/>
<path d="M197 61h1v1h-1v-1z"/>
<path d="M123 62h1v1h-1v-1z"/>
<path d="M125 62h1v1h-1v-1z"/>
<path d="M127 62h1v1h-1v-1z"/>
<path d="M130 62h1v1h-1v-1z"/>
<path d="M137 62h1v1h-1v-1z"/>
<path d="M139 62h1v1h-1v-1z"/>
<path d="M141 62h1v1h-1v-1z"/>
<path d="M193 62h1v1h-1v-1z"/>
<path d="M195 62h1v1h-1v-1z"/>
<path d="M198 62h1v1h-1v-1z"/>
<path d="M122 63h1v2h-1v-2z"/>
<path d="M124 63h1v1h-1v-1z"/>
<path d="M126 63h1v1h-1v-1z"/>
<path d="M129 63h1v1h-1v-1z"/>
<path d="M132 63h1v1h-1v-1z"/>
<path d="M134 63h1v1h-1v-1z"/>
<path d="M136 63h1v1h-1v-1z"/>
<path d="M143 63h1v1h-1v-1z"/>
<path d="M145 63h1v1h-1v-1z"/>
<path d="M194 63h1v1h-1v-1z"/>
<path d="M196 63h1v1h-1v-1z"/>
<path d="M125 64h1v1h-1v-1z"/>
<path d="M128 64h1v1h-1v-1z"/>
<path d="M131 64h1v1h-1v-1z"/>
<path d="M138 64h1v1h-1v-1z"/>
<path d="M140 64h1v1h-1v-1z"/>
<path d="M142 64h1v1h-1v-1z"/>
<path d="M193 64h1v2h-1v-2z"/>
<path d="M195 64h1v1h2v1h-1v1h-1v-1h-1v-2z"/>
<path d="M198 64h1v1h-1v-1z"/>
<path d="M200 64h1v1h-1v-1z"/>
<path d="M202 64h1v1h-1v-1z"/>
<path d="M205 64h1v1h-1v-1z"/>
<path d="M45 65h1v1h-1v-1z"/>
<path d="M123 65h1v2h-1v-2z"/>
<path d="M126 65h1v1h-1v-1z"/>
<path d="M129 65h1v1h-1v-1z"/>
<path d="M132 65h1v1h-1v-1z"/>
<path d="M134 65h1v1h-1v-1z"/>
<path d="M136 65h1v1h-1v-1z"/>
<path d="M143 65h1v1h-1v-1z"/>
<path d="M145 65h1v1h-1v-1z"/>
<path d="M199 65h1v1h-1v-1z"/>
<path d="M201 65h1v1h-1v-1z"/>
<path d="M125 66h1v1h-1v-1z"/>
<path d="M127 66h1v1h-1v-1z"/>
<path d="M130 66h1v1h-1v-1z"/>
<path d="M137 66h1v1h-1v-1z"/>
<path d="M139 66h1v1h-1v-1z"/>
<path d="M141 66h1v1h-1v-1z"/>
<path d="M146 66h1v1h-1v-1z"/>
<path d="M198 66h1v2h-1v1h-1v-2h1v-1z"/>
<path d="M200 66h1v2h-1v-2z"/>
<path d="M205 66h1v1h-1v-1z"/>
<path d="M120 67h1v1h-1v-1z"/>
<path d="M122 67h1v1h-1v-1z"/>
<path d="M124 67h1v1h-1v-1z"/>
<path d="M129 67h1v1h-1v-1z"/>
<path d="M132 67h1v1h-1v-1z"/>
<path d="M134 67h1v1h-1v-1z"/>
<path d="M136 67h1v1h-1v-1z"/>
<path d="M144 67h1v1h-1v-1z"/>
<path d="M44 68h1v1h-1v-1z"/>
<path d="M121 68h1v1h-1v-1z"/>
<path d="M123 68h1v1h-1v-1z"/>
<path d="M125 68h1v1h-1v-1z"/>
<path d="M127 68h1v1h-1v-1z"/>
<path d="M131 68h1v1h-1v-1z"/>
<path d="M138 68h1v1h-1v-1z"/>
<path d="M140 68h1v1h-1v-1z"/>
<path d="M142 68h1v1h-1v-1z"/>
<path d="M146 68h1v1h-1v-1z"/>
<path d="M170 68h1v1h-1v-1z"/>
<path d="M199 68h1v1h-1v-1z"/>
<path d="M201 68h1v1h-1v-1z"/>
<path d="M42 69h1v1h-1v-1z"/>
<path d="M45 69h1v1h-1v-1z"/>
<path d="M122 69h1v1h-1v-1z"/>
<path d="M124 69h1v1h-1v-1z"/>
<path d="M126 69h1v1h-1v-1z"/>
<path d="M128 69h1v1h-1v-1z"/>
<path d="M132 69h1v1h-1v-1z"/>
<path d="M134 69h1v1h-1v-1z"/>
<path d="M136 69h1v1h-1v-1z"/>
<path d="M143 69h1v1h-1v-1z"/>
<path d="M196 69h1v1h-1v-1z"/>
<path d="M198 69h1v1h-1v-1z"/>
<path d="M200 69h1v1h-1v-1z"/>
<path d="M121 70h1v1h-1v-1z"/>
<path d="M123 70h1v1h-1v-1z"/>
<path d="M125 70h1v1h-1v-1z"/>
<path d="M130 70h1v1h-1v-1z"/>
<path d="M137 70h1v1h-1v-1z"/>
<path d="M139 70h1v1h-1v-1z"/>
<path d="M141 70h1v1h-1v-1z"/>
<path d="M145 70h1v1h-1v-1z"/>
<path d="M147 70h1v1h-1v-1z"/>
<path d="M197 70h1v1h-1v-1z"/>
<path d="M199 70h1v1h-1v-1z"/>
<path d="M201 70h1v1h-1v-1z"/>
<path d="M205 70h1v1h-1v-1z"/>
<path d="M120 71h1v1h-1v-1z"/>
<path d="M122 71h1v1h-1v-1z"/>
<path d="M124 71h1v1h-1v-1z"/>
<path d="M127 71h1v1h-1v-1z"/>
<path d="M129 71h1v1h-1v-1z"/>
<path d="M132 71h1v1h-1v-1z"/>
<path d="M134 71h1v1h-1v-1z"/>
<path d="M136 71h1v1h-1v-1z"/>
<path d="M144 71h1v1h-1v-1z"/>
<path d="M149 71h1v1h-1v-1z"/>
<path d="M196 71h1v2h1v1h-2v-1h-1v-1h1v-1z"/>
<path d="M198 71h1v2h-1v-2z"/>
<path d="M209 71h1v1h-1v-1z"/>
<path d="M119 72h1v1h-1v-1z"/>
<path d="M121 72h1v1h-1v-1z"/>
<path d="M123 72h1v1h-1v-1z"/>
<path d="M125 72h1v1h-1v-1z"/>
<path d="M128 72h1v1h-1v-1z"/>
<path d="M131 72h1v1h-1v-1z"/>
<path d="M138 72h1v1h-1v-1z"/>
<path d="M140 72h1v1h-1v-1z"/>
<path d="M142 72h1v1h-1v-1z"/>
<path d="M200 72h1v1h-1v-1z"/>
<path d="M202 72h1v1h-1v-1z"/>
<path d="M208 72h1v1h-1v-1z"/>
<path d="M39 73h1v1h-1v-1z"/>
<path d="M120 73h1v1h-1v-1z"/>
<path d="M122 73h1v1h-1v-1z"/>
<path d="M124 73h1v1h-1v-1z"/>
<path d="M126 73h1v1h-1v-1z"/>
<path d="M129 73h1v1h-1v-1z"/>
<path d="M132 73h1v1h-1v-1z"/>
<path d="M134 73h1v1h-1v-1z"/>
<path d="M136 73h1v1h-1v-1z"/>
<path d="M143 73h1v1h-1v-1z"/>
<path d="M145 73h1v1h-1v-1z"/>
<path d="M147 73h1v1h-1v-1z"/>
<path d="M199 73h1v2h-1v1h-1v-2h1v-1z"/>
<path d="M201 73h1v2h-1v-2z"/>
<path d="M203 73h1v2h-1v-2z"/>
<path d="M209 73h1v1h-1v-1z"/>
<path d="M37 74h1v1h-1v-1z"/>
<path d="M40 74h1v1h-1v-1z"/>
<path d="M119 74h1v1h-1v-1z"/>
<path d="M121 74h1v1h-1v-1z"/>
<path d="M123 74h1v1h-1v-1z"/>
<path d="M125 74h1v1h-1v-1z"/>
<path d="M127 74h1v1h-1v-1z"/>
<path d="M130 74h1v1h-1v-1z"/>
<path d="M139 74h1v1h-1v-1z"/>
<path d="M141 74h1v1h-1v-1z"/>
<path d="M205 74h1v1h-1v-1z"/>
<path d="M118 75h1v1h-1v-1z"/>
<path d="M120 75h1v1h-1v-1z"/>
<path d="M122 75h1v1h-1v-1z"/>
<path d="M124 75h1v1h-1v-1z"/>
<path d="M126 75h1v1h-1v-1z"/>
<path d="M129 75h1v1h-1v-1z"/>
<path d="M132 75h1v1h-1v-1z"/>
<path d="M134 75h1v1h-1v-1z"/>
<path d="M136 75h1v1h-1v-1z"/>
<path d="M138 75h1v1h-1v-1z"/>
<path d="M144 75h1v1h-1v-1z"/>
<path d="M148 75h1v1h-1v-1z"/>
<path d="M200 75h1v3h-1v-1h-1v-1h1v-1z"/>
<path d="M202 75h1v2h1v1h-1v1h-1v1h-1v1h-1v-2h1v-1h1v-3z"/>
<path d="M204 75h1v1h-1v-1z"/>
<path d="M119 76h1v1h-1v-1z"/>
<path d="M121 76h1v1h-1v-1z"/>
<path d="M123 76h1v1h-1v-1z"/>
<path d="M125 76h1v1h-1v-1z"/>
<path d="M128 76h1v1h-1v-1z"/>
<path d="M131 76h1v1h-1v-1z"/>
<path d="M140 76h1v1h-1v-1z"/>
<path d="M142 76h1v1h-1v-1z"/>
<path d="M146 76h1v1h-1v-1z"/>
<path d="M155 76h1v1h-1v-1z"/>
<path d="M213 76h1v1h-1v-1z"/>
<path d="M35 77h1v1h-1v-1z"/>
<path d="M120 77h1v1h-1v-1z"/>
<path d="M122 77h1v1h-1v-1z"/>
<path d="M124 77h1v1h-1v-1z"/>
<path d="M126 77h1v1h-1v-1z"/>
<path d="M129 77h1v1h-1v-1z"/>
<path d="M132 77h1v1h-1v-1z"/>
<path d="M134 77h1v1h-1v-1z"/>
<path d="M136 77h1v1h-1v-1z"/>
<path d="M138 77h1v1h-1v-1z"/>
<path d="M143 77h1v1h-1v-1z"/>
<path d="M214 77h1v1h-1v-1z"/>
<path d="M34 78h1v1h-1v-1z"/>
<path d="M119 78h1v1h-1v-1z"/>
<path d="M121 78h1v1h-1v-1z"/>
<path d="M123 78h1v1h-1v-1z"/>
<path d="M127 78h1v1h-1v-1z"/>
<path d="M130 78h1v1h-1v-1z"/>
<path d="M139 78h1v1h-1v-1z"/>
<path d="M141 78h1v1h-1v-1z"/>
<path d="M144 78h1v1h-1v-1z"/>
<path d="M204 78h1v1h-1v-1z"/>
<path d="M35 79h1v1h-1v-1z"/>
<path d="M118 79h1v1h-1v-1z"/>
<path d="M120 79h1v1h-1v-1z"/>
<path d="M122 79h1v1h-1v-1z"/>
<path d="M124 79h1v1h-1v-1z"/>
<path d="M126 79h1v1h-1v-1z"/>
<path d="M129 79h1v1h-1v-1z"/>
<path d="M132 79h1v1h-1v-1z"/>
<path d="M134 79h1v1h-1v-1z"/>
<path d="M136 79h1v1h-1v-1z"/>
<path d="M138 79h1v1h-1v-1z"/>
<path d="M143 79h1v1h-1v-1z"/>
<path d="M155 79h1v1h-1v-1z"/>
<path d="M203 79h1v1h-1v-1z"/>
<path d="M205 79h1v1h-1v-1z"/>
<path d="M34 80h1v2h2v1h-1v1h-1v1h-1v-1h-1v-1h1v-3z"/>
<path d="M119 80h1v1h-1v-1z"/>
<path d="M121 80h1v1h-1v-1z"/>
<path d="M125 80h1v1h-1v-1z"/>
<path d="M128 80h1v1h-1v-1z"/>
<path d="M131 80h1v1h-1v-1z"/>
<path d="M140 80h1v1h-1v-1z"/>
<path d="M142 80h1v1h-1v-1z"/>
<path d="M145 80h1v1h-1v-1z"/>
<path d="M204 80h1v1h-1v-1z"/>
<path d="M206 80h1v1h-1v-1z"/>
<path d="M214 80h1v1h-1v-1z"/>
<path d="M120 81h1v1h-1v-1z"/>
<path d="M122 81h1v1h-1v-1z"/>
<path d="M124 81h1v1h-1v-1z"/>
<path d="M126 81h1v1h-1v-1z"/>
<path d="M129 81h1v1h-1v-1z"/>
<path d="M132 81h1v1h-1v-1z"/>
<path d="M134 81h1v1h-1v-1z"/>
<path d="M136 81h1v2h-1v-2z"/>
<path d="M138 81h1v1h-1v-1z"/>
<path d="M143 81h1v1h-1v-1z"/>
<path d="M152 81h1v1h-1v-1z"/>
<path d="M199 81h1v1h-1v-1z"/>
<path d="M201 81h1v1h-1v-1z"/>
<path d="M205 81h1v1h-1v-1z"/>
<path d="M119 82h1v1h-1v-1z"/>
<path d="M121 82h1v1h-1v-1z"/>
<path d="M123 82h1v1h-1v-1z"/>
<path d="M125 82h1v1h-1v-1z"/>
<path d="M128 82h1v1h-1v-1z"/>
<path d="M131 82h1v1h-1v-1z"/>
<path d="M133 82h1v1h-1v-1z"/>
<path d="M139 82h1v1h-1v-1z"/>
<path d="M141 82h1v1h-1v-1z"/>
<path d="M145 82h1v1h-1v-1z"/>
<path d="M147 82h1v1h-1v-1z"/>
<path d="M149 82h1v1h-1v-1z"/>
<path d="M206 82h1v1h-1v-1z"/>
<path d="M208 82h1v1h-1v-1z"/>
<path d="M211 82h1v1h-1v-1z"/>
<path d="M120 83h1v1h-1v-1z"/>
<path d="M122 83h1v1h-1v-1z"/>
<path d="M124 83h1v1h-1v-1z"/>
<path d="M127 83h1v1h-1v-1z"/>
<path d="M130 83h1v1h-1v-1z"/>
<path d="M132 83h1v1h-1v-1z"/>
<path d="M135 83h1v1h-1v-1z"/>
<path d="M138 83h1v1h-1v-1z"/>
<path d="M140 83h1v1h-1v-1z"/>
<path d="M144 83h1v1h-1v-1z"/>
<path d="M155 83h1v1h-1v-1z"/>
<path d="M169 83h1v1h-1v-1z"/>
<path d="M171 83h1v1h-1v-1z"/>
<path d="M205 83h1v1h-1v-1z"/>
<path d="M32 84h1v1h-1v-1z"/>
<path d="M142 84h1v2h-1v-2z"/>
<path d="M146 84h1v1h-1v-1z"/>
<path d="M151 84h1v1h-1v-1z"/>
<path d="M158 84h1v1h-1v-1z"/>
<path d="M160 84h1v1h-1v-1z"/>
<path d="M162 84h1v1h-1v-1z"/>
<path d="M164 84h1v1h-1v-1z"/>
<path d="M203 84h2v2h-1v-1h-1v-1z"/>
<path d="M210 84h1v1h-1v-1z"/>
<path d="M33 85h1v1h-1v-1z"/>
<path d="M35 85h1v1h1v1h-2v1h-1v-2h1v-1z"/>
<path d="M144 85h1v1h-1v-1z"/>
<path d="M147 85h1v1h-1v-1z"/>
<path d="M149 85h1v1h-1v-1z"/>
<path d="M153 85h1v1h-1v-1z"/>
<path d="M156 85h1v1h-1v-1z"/>
<path d="M200 85h1v1h-1v-1z"/>
<path d="M202 85h1v1h-1v-1z"/>
<path d="M209 85h1v1h-1v-1z"/>
<path d="M211 85h1v1h-1v-1z"/>
<path d="M30 86h1v1h-1v-1z"/>
<path d="M32 86h1v1h-1v-1z"/>
<path d="M151 86h1v1h-1v-1z"/>
<path d="M154 86h1v1h-1v-1z"/>
<path d="M210 86h1v1h-1v-1z"/>
<path d="M213 86h1v2h-1v-2z"/>
<path d="M209 87h1v6h-1v-1h-1v-1h1v-2h-1v-1h1v-1z"/>
<path d="M211 87h1v1h-1v-1z"/>
<path d="M215 87h1v1h-1v-1z"/>
<path d="M206 88h1v1h-1v-1z"/>
<path d="M212 88h1v1h-1v-1z"/>
<path d="M216 88h2v1h-2v-1z"/>
<path d="M203 89h1v1h-1v-1z"/>
<path d="M207 89h1v2h-1v-2z"/>
<path d="M29 90h1v1h-1v-1z"/>
<path d="M31 90h2v1h-1v1h-1v-2z"/>
<path d="M202 90h1v1h-1v-1z"/>
<path d="M24 91h1v1h-1v-1z"/>
<path d="M28 91h1v2h-1v-2z"/>
<path d="M206 91h1v1h-1v-1z"/>
<path d="M213 91h1v1h-1v-1z"/>
<path d="M23 92h1v1h-1v-1z"/>
<path d="M26 92h1v1h-1v-1z"/>
<path d="M30 92h1v1h-1v-1z"/>
<path d="M184 92h1v1h-1v-1z"/>
<path d="M205 92h1v1h-1v-1z"/>
<path d="M207 92h1v1h-1v-1z"/>
<path d="M24 93h1v1h-1v-1z"/>
<path d="M27 93h1v1h-1v-1z"/>
<path d="M29 93h1v1h-1v-1z"/>
<path d="M208 93h1v1h-1v-1z"/>
<path d="M210 93h1v1h-1v-1z"/>
<path d="M212 93h1v1h-1v-1z"/>
<path d="M214 93h1v1h-1v-1z"/>
<path d="M218 93h1v1h-1v-1z"/>
<path d="M22 94h1v1h-1v-1z"/>
<path d="M25 94h1v1h-1v-1z"/>
<path d="M28 94h1v1h-1v-1z"/>
<path d="M184 94h1v1h-1v-1z"/>
<path d="M209 94h1v1h-1v-1z"/>
<path d="M211 94h1v1h-1v-1z"/>
<path d="M213 94h1v1h-1v-1z"/>
<path d="M215 94h1v1h-1v-1z"/>
<path d="M27 95h1v2h-1v-2z"/>
<path d="M181 95h1v3h-1v-3z"/>
<path d="M183 95h1v1h-1v-1z"/>
<path d="M208 95h1v1h-1v-1z"/>
<path d="M210 95h1v1h-1v-1z"/>
<path d="M212 95h1v1h-1v-1z"/>
<path d="M214 95h1v1h-1v-1z"/>
<path d="M29 96h1v1h-1v-1z"/>
<path d="M184 96h1v1h-1v-1z"/>
<path d="M205 96h1v1h-1v-1z"/>
<path d="M207 96h1v1h-1v-1z"/>
<path d="M209 96h1v1h-1v-1z"/>
<path d="M211 96h1v1h-1v-1z"/>
<path d="M213 96h1v1h-1v-1z"/>
<path d="M215 96h2v2h-1v-1h-1v-1z"/>
<path d="M218 96h1v1h-1v-1z"/>
<path d="M28 97h1v1h-1v-1z"/>
<path d="M206 97h1v1h-1v-1z"/>
<path d="M210 97h1v1h-1v-1z"/>
<path d="M214 97h1v1h-1v-1z"/>
<path d="M151 98h1v2h-1v-2z"/>
<path d="M153 98h1v1h-1v-1z"/>
<path d="M183 98h1v1h-1v-1z"/>
<path d="M208 98h1v1h-1v-1z"/>
<path d="M211 98h1v1h-1v-1z"/>
<path d="M213 98h1v1h-1v-1z"/>
<path d="M215 98h1v1h-1v-1z"/>
<path d="M217 98h1v2h-1v-2z"/>
<path d="M207 99h1v1h-1v-1z"/>
<path d="M210 99h1v1h-1v-1z"/>
<path d="M212 99h1v1h-1v-1z"/>
<path d="M214 99h1v1h-1v-1z"/>
<path d="M24 100h1v4h-2v-1h1v-3z"/>
<path d="M153 100h1v1h-1v-1z"/>
<path d="M180 100h1v1h-1v-1z"/>
<path d="M183 100h1v1h-1v-1z"/>
<path d="M208 100h2v1h1v1h-2v-1h-1v-1z"/>
<path d="M215 100h2v3h-2v1h-1v-2h2v-1h-1v-1z"/>
<path d="M218 100h1v1h-1v-1z"/>
<path d="M22 101h1v1h-1v-1z"/>
<path d="M150 101h2v1h-2v-1z"/>
<path d="M154 101h1v1h-1v-1z"/>
<path d="M206 101h1v1h-1v-1z"/>
<path d="M213 101h1v1h-1v-1z"/>
<path d="M152 102h1v1h-1v-1z"/>
<path d="M211 102h1v1h-1v-1z"/>
<path d="M218 102h1v1h-1v-1z"/>
<path d="M151 103h1v1h-1v-1z"/>
<path d="M155 103h1v1h-1v-1z"/>
<path d="M210 103h1v1h-1v-1z"/>
<path d="M212 103h1v1h-1v-1z"/>
<path d="M217 103h1v1h-1v-1z"/>
<path d="M21 104h2v2h-1v-1h-1v-1z"/>
<path d="M27 104h1v1h-1v-1z"/>
<path d="M149 104h2v2h-1v-1h-1v-1z"/>
<path d="M152 104h1v1h-1v-1z"/>
<path d="M154 104h1v1h-1v-1z"/>
<path d="M208 104h2v3h-1v-2h-1v-1z"/>
<path d="M213 104h1v1h-1v-1z"/>
<path d="M215 104h1v1h-1v-1z"/>
<path d="M221 104h1v1h-1v-1z"/>
<path d="M24 105h1v1h-1v-1z"/>
<path d="M26 105h1v1h-1v-1z"/>
<path d="M28 105h1v1h-1v-1z"/>
<path d="M153 105h1v1h-1v-1z"/>
<path d="M211 105h1v1h-1v-1z"/>
<path d="M214 105h1v1h-1v-1z"/>
<path d="M216 105h1v1h-1v-1z"/>
<path d="M21 106h1v1h-1v-1z"/>
<path d="M25 106h1v1h-1v-1z"/>
<path d="M27 106h1v1h-1v-1z"/>
<path d="M148 106h2v1h-1v1h-1v-2z"/>
<path d="M151 106h2v1h-2v-1z"/>
<path d="M154 106h1v1h-1v-1z"/>
<path d="M156 106h1v1h-1v-1z"/>
<path d="M212 106h1v2h-1v-2z"/>
<path d="M215 106h1v1h-1v-1z"/>
<path d="M219 106h1v1h-1v-1z"/>
<path d="M221 106h1v1h-1v-1z"/>
<path d="M20 107h1v1h-1v-1z"/>
<path d="M24 107h1v1h-1v-1z"/>
<path d="M150 107h1v1h-1v-1z"/>
<path d="M153 107h1v1h-1v-1z"/>
<path d="M208 107h1v1h-1v-1z"/>
<path d="M210 107h1v1h-1v-1z"/>
<path d="M214 107h1v1h-1v-1z"/>
<path d="M218 107h1v1h-1v-1z"/>
<path d="M19 108h1v1h-1v-1z"/>
<path d="M21 108h1v1h-1v-1z"/>
<path d="M23 108h1v2h-1v-2z"/>
<path d="M147 108h1v1h-1v-1z"/>
<path d="M149 108h1v1h-1v-1z"/>
<path d="M151 108h1v1h-1v-1z"/>
<path d="M154 108h1v1h-1v-1z"/>
<path d="M156 108h1v1h-1v-1z"/>
<path d="M209 108h1v1h-1v-1z"/>
<path d="M211 108h1v1h-1v-1z"/>
<path d="M213 108h1v1h-1v-1z"/>
<path d="M216 108h1v1h-1v-1z"/>
<path d="M220 108h1v1h-1v-1z"/>
<path d="M222 108h1v1h-1v-1z"/>
<path d="M20 109h1v1h-1v-1z"/>
<path d="M146 109h1v1h-1v-1z"/>
<path d="M148 109h1v1h-1v-1z"/>
<path d="M150 109h1v1h-1v-1z"/>
<path d="M152 109h1v1h-1v-1z"/>
<path d="M155 109h1v1h-1v-1z"/>
<path d="M210 109h1v3h-1v-3z"/>
<path d="M212 109h1v1h-1v-1z"/>
<path d="M214 109h1v1h-1v-1z"/>
<path d="M217 109h1v1h-1v-1z"/>
<path d="M21 110h2v1h-2v-1z"/>
<path d="M147 110h1v1h-1v-1z"/>
<path d="M149 110h1v1h-1v-1z"/>
<path d="M151 110h1v1h-1v-1z"/>
<path d="M153 110h2v1h-2v-1z"/>
<path d="M156 110h1v1h-1v-1z"/>
<path d="M213 110h1v1h-1v-1z"/>
<path d="M215 110h1v1h-1v-1z"/>
<path d="M219 110h2v1h-2v-1z"/>
<path d="M19 111h1v1h-1v-1z"/>
<path d="M148 111h1v1h-1v-1z"/>
<path d="M150 111h1v1h-1v-1z"/>
<path d="M152 111h1v1h-1v-1z"/>
<path d="M212 111h1v1h-1v-1z"/>
<path d="M214 111h1v2h-1v-2z"/>
<path d="M218 111h1v1h-1v-1z"/>
<path d="M149 112h1v1h-1v-1z"/>
<path d="M151 112h1v1h-1v-1z"/>
<path d="M153 112h1v1h-1v-1z"/>
<path d="M155 112h1v1h-1v-1z"/>
<path d="M157 112h1v1h-1v-1z"/>
<path d="M209 112h1v2h-1v-2z"/>
<path d="M211 112h1v1h-1v-1z"/>
<path d="M216 112h1v1h-1v-1z"/>
<path d="M220 112h1v1h-1v-1z"/>
<path d="M20 113h1v1h-1v-1z"/>
<path d="M148 113h1v1h-1v-1z"/>
<path d="M150 113h1v1h-1v-1z"/>
<path d="M152 113h1v1h-1v-1z"/>
<path d="M154 113h1v1h-1v-1z"/>
<path d="M165 113h1v1h-1v-1z"/>
<path d="M176 113h1v1h-1v-1z"/>
<path d="M212 113h1v1h-1v-1z"/>
<path d="M215 113h1v1h-1v-1z"/>
<path d="M217 113h1v1h-1v-1z"/>
<path d="M219 113h1v1h-1v-1z"/>
<path d="M18 114h1v1h-1v-1z"/>
<path d="M21 114h1v1h-1v-1z"/>
<path d="M149 114h1v1h-1v-1z"/>
<path d="M151 114h1v1h-1v-1z"/>
<path d="M153 114h1v1h-1v-1z"/>
<path d="M155 114h1v1h-1v-1z"/>
<path d="M157 114h1v1h-1v-1z"/>
<path d="M163 114h1v1h-1v-1z"/>
<path d="M167 114h1v1h-1v-1z"/>
<path d="M169 114h3v1h-3v-1z"/>
<path d="M173 114h1v1h-1v-1z"/>
<path d="M175 114h1v1h-1v-1z"/>
<path d="M208 114h1v1h-1v-1z"/>
<path d="M210 114h2v2h-1v-1h-1v-1z"/>
<path d="M213 114h1v2h-1v-2z"/>
<path d="M220 114h2v1h-2v-1z"/>
<path d="M224 114h1v1h-1v-1z"/>
<path d="M230 114h1v1h-1v-1z"/>
<path d="M15 115h1v1h-1v-1z"/>
<path d="M17 115h1v1h-1v-1z"/>
<path d="M20 115h1v1h-1v-1z"/>
<path d="M148 115h1v1h-1v-1z"/>
<path d="M150 115h1v1h-1v-1z"/>
<path d="M152 115h1v1h-1v-1z"/>
<path d="M154 115h1v1h-1v-1z"/>
<path d="M164 115h1v1h-1v-1z"/>
<path d="M166 115h1v1h-1v-1z"/>
<path d="M176 115h1v1h-1v-1z"/>
<path d="M207 115h1v1h1v1h-1v1h-1v-1h-1v-1h1v-1z"/>
<path d="M209 115h1v1h-1v-1z"/>
<path d="M217 115h1v1h-1v-1z"/>
<path d="M219 115h1v1h-1v-1z"/>
<path d="M222 115h1v1h-1v-1z"/>
<path d="M18 116h1v1h-1v-1z"/>
<path d="M145 116h1v2h-1v-2z"/>
<path d="M147 116h1v2h-1v-2z"/>
<path d="M149 116h1v2h-1v-2z"/>
<path d="M151 116h1v2h-1v-2z"/>
<path d="M153 116h1v1h-1v-1z"/>
<path d="M156 116h1v1h-1v-1z"/>
<path d="M165 116h1v1h-1v-1z"/>
<path d="M168 116h1v1h-1v-1z"/>
<path d="M171 116h1v1h-1v-1z"/>
<path d="M173 116h1v1h-1v-1z"/>
<path d="M175 116h1v1h-1v-1z"/>
<path d="M210 116h1v1h-1v-1z"/>
<path d="M212 116h1v1h-1v-1z"/>
<path d="M221 116h1v1h-1v-1z"/>
<path d="M223 116h1v1h-1v-1z"/>
<path d="M225 116h1v1h-1v-1z"/>
<path d="M14 117h1v1h-1v-1z"/>
<path d="M17 117h1v1h-1v-1z"/>
<path d="M19 117h1v1h-1v-1z"/>
<path d="M154 117h1v1h-1v-1z"/>
<path d="M157 117h1v1h-1v-1z"/>
<path d="M164 117h1v1h-1v-1z"/>
<path d="M166 117h1v1h-1v-1z"/>
<path d="M169 117h1v1h-1v-1z"/>
<path d="M176 117h1v1h-1v-1z"/>
<path d="M209 117h1v1h-1v-1z"/>
<path d="M211 117h1v1h-1v-1z"/>
<path d="M213 117h1v1h-1v-1z"/>
<path d="M226 117h1v1h-1v-1z"/>
<path d="M15 118h1v1h-1v-1z"/>
<path d="M18 118h1v1h-1v-1z"/>
<path d="M123 118h1v1h-1v-1z"/>
<path d="M125 118h2v1h-2v-1z"/>
<path d="M128 118h1v2h-1v-2z"/>
<path d="M130 118h1v2h-1v-2z"/>
<path d="M144 118h1v1h-1v-1z"/>
<path d="M146 118h1v1h-1v-1z"/>
<path d="M148 118h1v1h-1v-1z"/>
<path d="M150 118h1v1h-1v-1z"/>
<path d="M152 118h2v1h-2v-1z"/>
<path d="M155 118h1v1h-1v-1z"/>
<path d="M158 118h1v1h-1v-1z"/>
<path d="M165 118h1v1h-1v-1z"/>
<path d="M167 118h1v1h-1v-1z"/>
<path d="M208 118h1v1h-1v-1z"/>
<path d="M210 118h1v1h-1v-1z"/>
<path d="M214 118h1v1h-1v-1z"/>
<path d="M224 118h1v1h-1v-1z"/>
<path d="M14 119h1v1h-1v-1z"/>
<path d="M17 119h1v1h-1v-1z"/>
<path d="M122 119h1v1h-1v-1z"/>
<path d="M124 119h1v1h-1v-1z"/>
<path d="M143 119h1v1h-1v-1z"/>
<path d="M149 119h1v2h-1v-2z"/>
<path d="M151 119h1v2h-1v-2z"/>
<path d="M164 119h1v1h1v1h1v1h-1v1h-1v-2h-1v-2z"/>
<path d="M166 119h1v1h-1v-1z"/>
<path d="M169 119h1v1h-1v-1z"/>
<path d="M171 119h1v1h-1v-1z"/>
<path d="M176 119h1v1h-1v-1z"/>
<path d="M207 119h1v3h-1v-1h-1v-1h1v-1z"/>
<path d="M209 119h1v1h-1v-1z"/>
<path d="M211 119h1v1h-1v-1z"/>
<path d="M213 119h1v1h-1v-1z"/>
<path d="M216 119h1v1h-1v-1z"/>
<path d="M16 120h1v1h-1v-1z"/>
<path d="M18 120h1v1h-1v-1z"/>
<path d="M120 120h2v2h-1v-1h-1v-1z"/>
<path d="M123 120h1v1h-1v-1z"/>
<path d="M125 120h1v1h-1v-1z"/>
<path d="M127 120h1v1h-1v-1z"/>
<path d="M129 120h1v2h-1v-2z"/>
<path d="M131 120h1v1h1v1h-1v1h-1v1h-1v-2h1v-2z"/>
<path d="M153 120h1v1h-1v-1z"/>
<path d="M155 120h1v1h-1v-1z"/>
<path d="M157 120h1v1h-1v-1z"/>
<path d="M167 120h1v1h-1v-1z"/>
<path d="M175 120h1v1h-1v-1z"/>
<path d="M210 120h1v1h-1v-1z"/>
<path d="M214 120h1v1h-1v-1z"/>
<path d="M224 120h1v1h-1v-1z"/>
<path d="M226 120h1v1h-1v-1z"/>
<path d="M233 120h1v1h-1v-1z"/>
<path d="M17 121h1v1h-1v-1z"/>
<path d="M19 121h2v1h-2v-1z"/>
<path d="M119 121h1v1h-1v-1z"/>
<path d="M124 121h1v1h-1v-1z"/>
<path d="M126 121h1v1h-1v-1z"/>
<path d="M154 121h1v3h-1v-3z"/>
<path d="M159 121h1v1h-1v-1z"/>
<path d="M168 121h1v1h-1v-1z"/>
<path d="M170 121h1v1h-1v-1z"/>
<path d="M209 121h1v1h-1v-1z"/>
<path d="M211 121h1v1h-1v-1z"/>
<path d="M215 121h1v1h-1v-1z"/>
<path d="M235 121h1v1h-1v-1z"/>
<path d="M15 122h1v1h-1v-1z"/>
<path d="M120 122h1v1h-1v-1z"/>
<path d="M122 122h2v1h-2v-1z"/>
<path d="M128 122h1v2h-1v-2z"/>
<path d="M156 122h1v1h-1v-1z"/>
<path d="M163 122h1v1h-1v-1z"/>
<path d="M167 122h1v1h-1v-1z"/>
<path d="M169 122h1v1h-1v-1z"/>
<path d="M172 122h1v1h-1v-1z"/>
<path d="M176 122h1v1h-1v-1z"/>
<path d="M208 122h1v1h-1v-1z"/>
<path d="M210 122h1v1h-1v-1z"/>
<path d="M213 122h1v1h-1v-1z"/>
<path d="M217 122h1v1h-1v-1z"/>
<path d="M224 122h1v1h-1v-1z"/>
<path d="M226 122h1v1h-1v-1z"/>
<path d="M14 123h1v1h-1v-1z"/>
<path d="M119 123h1v1h-1v-1z"/>
<path d="M121 123h1v1h-1v-1z"/>
<path d="M126 123h1v1h-1v-1z"/>
<path d="M158 123h1v1h-1v-1z"/>
<path d="M162 123h1v1h-1v-1z"/>
<path d="M164 123h1v1h-1v-1z"/>
<path d="M166 123h1v1h-1v-1z"/>
<path d="M168 123h1v1h-1v-1z"/>
<path d="M171 123h1v1h-1v-1z"/>
<path d="M174 123h1v1h-1v-1z"/>
<path d="M207 123h1v1h-1v-1z"/>
<path d="M209 123h1v1h-1v-1z"/>
<path d="M212 123h1v1h-1v-1z"/>
<path d="M216 123h1v1h-1v-1z"/>
<path d="M13 124h1v2h-1v-2z"/>
<path d="M15 124h1v1h-1v-1z"/>
<path d="M117 124h2v2h-1v-1h-1v-1z"/>
<path d="M120 124h1v1h-1v-1z"/>
<path d="M122 124h1v1h-1v-1z"/>
<path d="M124 124h1v1h-1v-1z"/>
<path d="M127 124h1v3h-1v-3z"/>
<path d="M129 124h1v1h1v1h-1v1h-1v-3z"/>
<path d="M131 124h1v1h-1v-1z"/>
<path d="M153 124h1v1h-1v-1z"/>
<path d="M155 124h1v1h-1v-1z"/>
<path d="M161 124h1v1h-1v-1z"/>
<path d="M165 124h1v1h-1v-1z"/>
<path d="M167 124h1v1h-1v-1z"/>
<path d="M169 124h1v1h-1v-1z"/>
<path d="M176 124h1v1h-1v-1z"/>
<path d="M208 124h1v1h-1v-1z"/>
<path d="M210 124h1v1h-1v-1z"/>
<path d="M214 124h1v1h-1v-1z"/>
<path d="M225 124h1v1h-1v-1z"/>
<path d="M227 124h1v1h-1v-1z"/>
<path d="M9 125h1v1h-1v-1z"/>
<path d="M16 125h1v1h-1v-1z"/>
<path d="M121 125h1v1h-1v-1z"/>
<path d="M125 125h1v1h-1v-1z"/>
<path d="M132 125h1v1h1v-1h1v1h1v1h-1v1h1v1h-1v1h1v-1h1v2h-1v1h-1v-1h-1v1h1v2	h-1v-1h-1v-1h-1v-1h1v-1h1v-1h-1v-1h-1v-1h-1v-1h1v-1zM133 127v1h1v-1h-1z" fill-rule="nonzero"/>
<path d="M148 125h1v1h-1v-1z"/>
<path d="M154 125h1v1h-1v-1z"/>
<path d="M157 125h1v1h-1v-1z"/>
<path d="M163 125h1v1h-1v-1z"/>
<path d="M166 125h1v1h-1v-1z"/>
<path d="M168 125h1v1h-1v-1z"/>
<path d="M170 125h1v1h-1v-1z"/>
<path d="M172 125h1v1h-1v-1z"/>
<path d="M209 125h1v1h-1v-1z"/>
<path d="M211 125h1v1h-1v-1z"/>
<path d="M213 125h1v1h-1v-1z"/>
<path d="M216 125h1v2h-1v-2z"/>
<path d="M226 125h1v1h-1v-1z"/>
<path d="M7 126h1v1h-1v-1z"/>
<path d="M117 126h1v1h-1v-1z"/>
<path d="M119 126h2v1h-2v-1z"/>
<path d="M122 126h1v1h-1v-1z"/>
<path d="M124 126h1v1h-1v-1z"/>
<path d="M149 126h2v1h-1v1h-2v-1h1v-1z"/>
<path d="M153 126h1v1h-1v-1z"/>
<path d="M165 126h1v1h-1v-1z"/>
<path d="M167 126h1v1h-1v-1z"/>
<path d="M169 126h1v1h-1v-1z"/>
<path d="M174 126h1v1h-1v-1z"/>
<path d="M176 126h1v1h-1v-1z"/>
<path d="M212 126h1v1h-1v-1z"/>
<path d="M214 126h1v1h-1v-1z"/>
<path d="M227 126h2v1h-2v-1z"/>
<path d="M11 127h1v1h-1v-1z"/>
<path d="M14 127h1v1h-1v-1z"/>
<path d="M116 127h1v1h-1v-1z"/>
<path d="M118 127h1v1h-1v-1z"/>
<path d="M123 127h1v1h-1v-1z"/>
<path d="M126 127h1v1h-1v-1z"/>
<path d="M128 127h1v1h-1v-1z"/>
<path d="M130 127h1v1h-1v-1z"/>
<path d="M142 127h1v1h-1v-1z"/>
<path d="M144 127h1v1h-1v-1z"/>
<path d="M152 127h1v1h-1v-1z"/>
<path d="M162 127h1v1h-1v-1z"/>
<path d="M164 127h1v1h-1v-1z"/>
<path d="M166 127h1v1h-1v-1z"/>
<path d="M168 127h1v1h-1v-1z"/>
<path d="M171 127h1v1h-1v-1z"/>
<path d="M173 127h1v1h-1v-1z"/>
<path d="M209 127h1v2h-1v-2z"/>
<path d="M211 127h1v1h-1v-1z"/>
<path d="M215 127h1v2h-1v-2z"/>
<path d="M13 128h1v1h-1v-1z"/>
<path d="M15 128h1v1h1v1h-2v-2z"/>
<path d="M115 128h1v1h-1v-1z"/>
<path d="M117 128h1v1h-1v-1z"/>
<path d="M119 128h1v1h-1v-1z"/>
<path d="M121 128h1v1h-1v-1z"/>
<path d="M124 128h2v1h1v1h-1v1h-1v-2h-1v-1z"/>
<path d="M127 128h1v1h-1v-1z"/>
<path d="M129 128h1v1h1v-1h1v1h1v1h-1v1h-1v-1h-1v1h-1v-1h-1v-1h1v-1z"/>
<path d="M143 128h1v1h-1v-1z"/>
<path d="M145 128h1v1h-1v-1z"/>
<path d="M147 128h1v1h-1v-1z"/>
<path d="M150 128h2v1h1v1h-2v-1h-1v-1z"/>
<path d="M154 128h1v2h-1v-2z"/>
<path d="M156 128h1v1h-1v-1z"/>
<path d="M167 128h1v1h-1v-1z"/>
<path d="M169 128h1v1h-1v-1z"/>
<path d="M175 128h1v1h-1v-1z"/>
<path d="M213 128h1v1h-1v-1z"/>
<path d="M217 128h1v1h-1v-1z"/>
<path d="M228 128h1v1h-1v-1z"/>
<path d="M231 128h1v1h-1v-1z"/>
<path d="M10 129h2v1h-2v-1z"/>
<path d="M116 129h1v1h-1v-1z"/>
<path d="M118 129h1v1h-1v-1z"/>
<path d="M120 129h1v1h-1v-1z"/>
<path d="M122 129h1v1h-1v-1z"/>
<path d="M144 129h1v2h-1v-2z"/>
<path d="M146 129h1v2h-1v-2z"/>
<path d="M148 129h1v2h-1v-2z"/>
<path d="M163 129h1v1h-1v-1z"/>
<path d="M165 129h1v1h-1v-1z"/>
<path d="M168 129h1v1h-1v-1z"/>
<path d="M170 129h1v1h-1v-1z"/>
<path d="M172 129h1v1h-1v-1z"/>
<path d="M208 129h1v1h-1v-1z"/>
<path d="M210 129h1v1h-1v-1z"/>
<path d="M235 129h1v1h-1v-1z"/>
<path d="M12 130h1v1h-1v-1z"/>
<path d="M14 130h1v1h-1v-1z"/>
<path d="M115 130h1v1h-1v-1z"/>
<path d="M117 130h1v1h-1v-1z"/>
<path d="M119 130h1v1h-1v-1z"/>
<path d="M123 130h1v1h-1v-1z"/>
<path d="M127 130h1v1h-1v-1z"/>
<path d="M140 130h1v1h-1v-1z"/>
<path d="M150 130h1v1h-1v-1z"/>
<path d="M153 130h1v1h-1v-1z"/>
<path d="M155 130h1v1h-1v-1z"/>
<path d="M166 130h1v1h-1v-1z"/>
<path d="M169 130h1v2h-1v1h-1v-2h1v-1z"/>
<path d="M174 130h1v1h-1v-1z"/>
<path d="M209 130h1v2h-2v-1h1v-1z"/>
<path d="M212 130h1v1h-1v-1z"/>
<path d="M214 130h1v1h-1v-1z"/>
<path d="M216 130h1v1h-1v-1z"/>
<path d="M236 130h1v1h-1v-1z"/>
<path d="M9 131h1v1h-1v-1z"/>
<path d="M11 131h1v1h-1v-1z"/>
<path d="M13 131h1v1h-1v-1z"/>
<path d="M114 131h1v1h-1v-1z"/>
<path d="M116 131h1v1h-1v-1z"/>
<path d="M118 131h1v1h-1v-1z"/>
<path d="M122 131h1v2h-1v-2z"/>
<path d="M124 131h1v1h1v1h1v1h-2v-1h-1v-2z"/>
<path d="M126 131h1v1h-1v-1z"/>
<path d="M128 131h1v1h-1v-1z"/>
<path d="M130 131h1v1h-1v-1z"/>
<path d="M137 131h1v1h-1v-1z"/>
<path d="M139 131h1v1h-1v-1z"/>
<path d="M141 131h1v1h-1v-1z"/>
<path d="M143 131h1v1h-1v-1z"/>
<path d="M145 131h1v1h-1v-1z"/>
<path d="M147 131h1v1h-1v-1z"/>
<path d="M149 131h1v1h-1v-1z"/>
<path d="M152 131h1v1h-1v-1z"/>
<path d="M164 131h1v1h-1v-1z"/>
<path d="M171 131h1v1h-1v-1z"/>
<path d="M173 131h1v1h-1v-1z"/>
<path d="M175 131h1v1h-1v-1z"/>
<path d="M211 131h1v2h-1v-2z"/>
<path d="M213 131h1v2h-1v-2z"/>
<path d="M215 131h1v1h-1v-1z"/>
<path d="M7 132h1v1h-1v-1z"/>
<path d="M10 132h1v2h-1v-2z"/>
<path d="M12 132h1v1h-1v-1z"/>
<path d="M14 132h1v1h-1v-1z"/>
<path d="M113 132h1v1h-1v-1z"/>
<path d="M115 132h1v1h-1v-1z"/>
<path d="M117 132h1v1h-1v-1z"/>
<path d="M120 132h1v1h-1v-1z"/>
<path d="M127 132h1v1h-1v-1z"/>
<path d="M129 132h1v1h-1v-1z"/>
<path d="M131 132h1v1h-1v-1z"/>
<path d="M136 132h1v2h-1v-2z"/>
<path d="M138 132h1v2h-1v-2z"/>
<path d="M140 132h1v2h-1v-2z"/>
<path d="M142 132h1v2h-1v-2z"/>
<path d="M144 132h1v1h-1v-1z"/>
<path d="M146 132h1v1h-1v-1z"/>
<path d="M151 132h1v1h-1v-1z"/>
<path d="M166 132h1v1h-1v-1z"/>
<path d="M170 132h1v1h-1v-1z"/>
<path d="M218 132h1v1h-1v-1z"/>
<path d="M8 133h1v1h-1v-1z"/>
<path d="M13 133h1v1h-1v-1z"/>
<path d="M15 133h1v1h-1v-1z"/>
<path d="M114 133h1v1h-1v-1z"/>
<path d="M116 133h1v1h-1v-1z"/>
<path d="M118 133h1v1h-1v-1z"/>
<path d="M121 133h1v1h-1v-1z"/>
<path d="M123 133h1v1h-1v-1z"/>
<path d="M128 133h1v1h-1v-1z"/>
<path d="M130 133h1v1h-1v-1z"/>
<path d="M145 133h1v1h-1v-1z"/>
<path d="M147 133h1v1h-1v-1z"/>
<path d="M149 133h1v1h-1v-1z"/>
<path d="M152 133h1v1h-1v-1z"/>
<path d="M158 133h1v1h-1v-1z"/>
<path d="M167 133h1v1h-1v-1z"/>
<path d="M169 133h1v1h-1v-1z"/>
<path d="M172 133h1v1h-1v-1z"/>
<path d="M174 133h1v1h-1v-1z"/>
<path d="M212 133h1v1h-1v-1z"/>
<path d="M214 133h1v1h-1v-1z"/>
<path d="M216 133h1v1h-1v-1z"/>
<path d="M9 134h1v1h-1v-1z"/>
<path d="M11 134h2v2h-2v-2z"/>
<path d="M14 134h1v2h-1v-2z"/>
<path d="M115 134h1v2h-2v-1h1v-1z"/>
<path d="M117 134h1v2h-1v-2z"/>
<path d="M119 134h1v1h-1v-1z"/>
<path d="M122 134h1v1h-1v-1z"/>
<path d="M124 134h1v1h-1v-1z"/>
<path d="M127 134h1v1h-1v-1z"/>
<path d="M139 134h1v1h-1v-1z"/>
<path d="M141 134h1v1h1v-1h2v1h-1v1h-2v1h-1v-1h-1v-1h1v-1z"/>
<path d="M146 134h1v1h-1v-1z"/>
<path d="M148 134h1v1h-1v-1z"/>
<path d="M150 134h1v2h-1v-2z"/>
<path d="M154 134h1v1h-1v-1z"/>
<path d="M156 134h1v1h-1v-1z"/>
<path d="M168 134h1v1h-1v-1z"/>
<path d="M170 134h1v1h-1v-1z"/>
<path d="M175 134h1v1h-1v-1z"/>
<path d="M211 134h1v2h-1v-2z"/>
<path d="M217 134h1v1h-1v-1z"/>
<path d="M219 134h1v1h-1v-1z"/>
<path d="M121 135h1v1h-1v-1z"/>
<path d="M123 135h1v1h-1v-1z"/>
<path d="M145 135h1v1h-1v-1z"/>
<path d="M147 135h1v1h-1v-1z"/>
<path d="M169 135h1v1h-1v-1z"/>
<path d="M213 135h2v1h-2v-1z"/>
<path d="M216 135h1v1h-1v-1z"/>
<path d="M10 136h1v1h-1v-1z"/>
<path d="M13 136h1v1h-1v-1z"/>
<path d="M15 136h1v1h-1v-1z"/>
<path d="M116 136h1v2h-1v-2z"/>
<path d="M118 136h1v1h-1v-1z"/>
<path d="M120 136h1v1h-1v-1z"/>
<path d="M122 136h1v1h-1v-1z"/>
<path d="M124 136h1v1h-1v-1z"/>
<path d="M139 136h1v1h-1v-1z"/>
<path d="M144 136h1v1h-1v-1z"/>
<path d="M146 136h1v1h-1v-1z"/>
<path d="M149 136h1v1h-1v-1z"/>
<path d="M170 136h1v1h-1v-1z"/>
<path d="M215 136h1v1h-1v-1z"/>
<path d="M217 136h1v1h-1v-1z"/>
<path d="M220 136h1v1h-1v-1z"/>
<path d="M11 137h1v1h-1v-1z"/>
<path d="M14 137h1v1h1v1h-1v1h1v1h1v1h-1v1h-1v-2h-1v-4z"/>
<path d="M16 137h1v1h-1v-1z"/>
<path d="M123 137h1v1h-1v-1z"/>
<path d="M138 137h1v1h-1v-1z"/>
<path d="M140 137h1v1h-1v-1z"/>
<path d="M142 137h1v1h-1v-1z"/>
<path d="M145 137h1v2h-1v-2z"/>
<path d="M164 137h1v1h-1v-1z"/>
<path d="M171 137h1v1h-1v-1z"/>
<path d="M218 137h1v1h-1v-1z"/>
<path d="M10 138h1v1h-1v-1z"/>
<path d="M12 138h1v3h-1v-3z"/>
<path d="M117 138h2v1h-1v1h-2v-1h1v-1z"/>
<path d="M120 138h1v1h-1v-1z"/>
<path d="M122 138h1v2h-1v-2z"/>
<path d="M139 138h1v1h-1v-1z"/>
<path d="M143 138h1v1h-1v-1z"/>
<path d="M150 138h1v1h-1v-1z"/>
<path d="M163 138h1v2h-1v-2z"/>
<path d="M214 138h1v2h-1v-2z"/>
<path d="M220 138h1v1h-1v-1z"/>
<path d="M222 138h1v1h-1v-1z"/>
<path d="M9 139h1v1h-1v-1z"/>
<path d="M138 139h1v1h-1v-1z"/>
<path d="M171 139h1v1h-1v-1z"/>
<path d="M8 140h1v1h-1v-1z"/>
<path d="M10 140h1v1h-1v-1z"/>
<path d="M118 140h1v1h-1v-1z"/>
<path d="M120 140h1v1h-1v-1z"/>
<path d="M150 140h1v1h-1v-1z"/>
<path d="M162 140h1v1h-1v-1z"/>
<path d="M169 140h1v1h-1v-1z"/>
<path d="M219 140h1v2h-1v-2z"/>
<path d="M230 140h1v1h-1v-1z"/>
<path d="M11 141h1v1h-1v-1z"/>
<path d="M119 141h1v1h-1v-1z"/>
<path d="M121 141h1v1h-1v-1z"/>
<path d="M151 141h1v2h-1v-2z"/>
<path d="M156 141h3v1h-1v1h-1v-1h-1v-1z"/>
<path d="M163 141h1v1h-1v-1z"/>
<path d="M170 141h1v1h-1v-1z"/>
<path d="M2 142h1v1h-1v-1z"/>
<path d="M7 142h1v1h-1v-1z"/>
<path d="M9 142h1v3h-1v-3z"/>
<path d="M13 142h1v1h-1v-1z"/>
<path d="M123 142h1v2h-2v-1h1v-1z"/>
<path d="M131 142h1v1h-1v-1z"/>
<path d="M147 142h1v2h-2v-1h1v-1z"/>
<path d="M149 142h1v1h1v1h-2v-2z"/>
<path d="M153 142h1v1h1v1h-3v-1h1v-1z"/>
<path d="M155 142h1v1h-1v-1z"/>
<path d="M159 142h1v1h-1v-1z"/>
<path d="M161 142h1v1h-1v-1z"/>
<path d="M165 142h1v1h-1v-1z"/>
<path d="M11 143h2v1h-2v-1z"/>
<path d="M14 143h1v1h-1v-1z"/>
<path d="M120 143h1v1h-1v-1z"/>
<path d="M130 143h1v1h-1v-1z"/>
<path d="M156 143h1v1h-1v-1z"/>
<path d="M164 143h1v1h-1v-1z"/>
<path d="M219 143h1v2h-1v-2z"/>
<path d="M7 144h1v2h-1v-2z"/>
<path d="M13 144h1v1h-1v-1z"/>
<path d="M119 144h1v1h-1v-1z"/>
<path d="M121 144h1v1h-1v-1z"/>
<path d="M124 144h1v1h-1v-1z"/>
<path d="M126 144h1v1h-1v-1z"/>
<path d="M131 144h1v1h-1v-1z"/>
<path d="M137 144h1v1h1v1h-1v1h-1v-1h-1v-1h1v-1z"/>
<path d="M139 144h1v1h-1v-1z"/>
<path d="M141 144h1v1h-1v-1z"/>
<path d="M145 144h1v1h-1v-1z"/>
<path d="M148 144h1v2h-1v-2z"/>
<path d="M151 144h1v1h-1v-1z"/>
<path d="M170 144h1v1h-1v-1z"/>
<path d="M211 144h1v1h-1v-1z"/>
<path d="M214 144h1v1h-1v-1z"/>
<path d="M10 145h1v1h-1v-1z"/>
<path d="M12 145h1v1h-1v-1z"/>
<path d="M14 145h1v1h1v1h-1v1h-1v2h-1v-2h-2v-1h3v-2z"/>
<path d="M120 145h1v1h-1v-1z"/>
<path d="M127 145h1v1h-1v-1z"/>
<path d="M132 145h1v1h-1v-1z"/>
<path d="M134 145h1v1h-1v-1z"/>
<path d="M140 145h1v1h-1v-1z"/>
<path d="M142 145h1v1h-1v-1z"/>
<path d="M144 145h1v1h-1v-1z"/>
<path d="M146 145h1v1h-1v-1z"/>
<path d="M152 145h1v1h-1v-1z"/>
<path d="M154 145h1v1h-1v-1z"/>
<path d="M163 145h1v1h-1v-1z"/>
<path d="M210 145h1v2h1v1h-1v1h-1v-1h-1v-1h1v-2z"/>
<path d="M212 145h1v2h-1v-2z"/>
<path d="M215 145h1v1h-1v-1z"/>
<path d="M6 146h1v1h-1v-1z"/>
<path d="M9 146h1v1h-1v-1z"/>
<path d="M121 146h1v1h-1v-1z"/>
<path d="M131 146h1v1h-1v-1z"/>
<path d="M133 146h1v1h-1v-1z"/>
<path d="M135 146h1v1h-1v-1z"/>
<path d="M139 146h1v1h-1v-1z"/>
<path d="M141 146h1v1h-1v-1z"/>
<path d="M143 146h1v1h-1v-1z"/>
<path d="M145 146h1v1h-1v-1z"/>
<path d="M147 146h1v1h-1v-1z"/>
<path d="M150 146h1v1h-1v-1z"/>
<path d="M239 146h1v1h-1v-1z"/>
<path d="M5 147h1v1h-1v-1z"/>
<path d="M8 147h1v1h-1v-1z"/>
<path d="M130 147h1v1h-1v-1z"/>
<path d="M132 147h1v1h-1v-1z"/>
<path d="M134 147h1v1h-1v-1z"/>
<path d="M136 147h1v1h-1v-1z"/>
<path d="M138 147h1v1h-1v-1z"/>
<path d="M140 147h1v1h-1v-1z"/>
<path d="M142 147h1v1h-1v-1z"/>
<path d="M144 147h1v1h-1v-1z"/>
<path d="M146 147h1v1h-1v-1z"/>
<path d="M149 147h1v1h-1v-1z"/>
<path d="M153 147h1v1h-1v-1z"/>
<path d="M215 147h1v1h-1v-1z"/>
<path d="M7 148h1v1h-1v-1z"/>
<path d="M10 148h1v1h1v1h-2v-2z"/>
<path d="M131 148h1v1h-1v-1z"/>
<path d="M133 148h1v1h-1v-1z"/>
<path d="M135 148h1v1h-1v-1z"/>
<path d="M137 148h1v1h-1v-1z"/>
<path d="M139 148h1v1h-1v-1z"/>
<path d="M141 148h1v1h-1v-1z"/>
<path d="M143 148h1v1h-1v-1z"/>
<path d="M145 148h1v1h-1v-1z"/>
<path d="M147 148h1v1h-1v-1z"/>
<path d="M151 148h1v1h-1v-1z"/>
<path d="M208 148h1v1h1v1h1v1h-1v2h-1v-3h-1v3h-1v-2h-1v-1h1v-1h1v-1z"/>
<path d="M212 148h1v1h-1v-1z"/>
<path d="M216 148h1v1h-1v-1z"/>
<path d="M218 148h1v1h-1v-1z"/>
<path d="M220 148h1v1h-1v-1z"/>
<path d="M241 148h1v1h-1v-1z"/>
<path d="M243 148h1v1h-1v-1z"/>
<path d="M8 149h1v1h-1v-1z"/>
<path d="M132 149h1v1h-1v-1z"/>
<path d="M134 149h1v1h-1v-1z"/>
<path d="M136 149h1v1h-1v-1z"/>
<path d="M138 149h1v1h-1v-1z"/>
<path d="M140 149h1v1h-1v-1z"/>
<path d="M142 149h1v1h-1v-1z"/>
<path d="M144 149h1v1h-1v-1z"/>
<path d="M146 149h1v1h-1v-1z"/>
<path d="M148 149h1v1h-1v-1z"/>
<path d="M154 149h1v1h-1v-1z"/>
<path d="M205 149h1v1h-1v-1z"/>
<path d="M211 149h1v1h-1v-1z"/>
<path d="M214 149h1v1h-1v-1z"/>
<path d="M217 149h1v1h1v1h-3v1h-1v-2h2v-1z"/>
<path d="M6 150h1v1h-1v-1z"/>
<path d="M12 150h1v1h-1v-1z"/>
<path d="M131 150h1v1h-1v-1z"/>
<path d="M133 150h1v1h-1v-1z"/>
<path d="M135 150h1v1h-1v-1z"/>
<path d="M137 150h1v1h-1v-1z"/>
<path d="M139 150h1v1h-1v-1z"/>
<path d="M141 150h1v1h-1v-1z"/>
<path d="M143 150h1v1h-1v-1z"/>
<path d="M145 150h1v1h-1v-1z"/>
<path d="M147 150h1v1h-1v-1z"/>
<path d="M150 150h1v1h-1v-1z"/>
<path d="M152 150h1v1h-1v-1z"/>
<path d="M163 150h1v1h-1v-1z"/>
<path d="M212 150h1v1h-1v-1z"/>
<path d="M220 150h1v1h-1v-1z"/>
<path d="M222 150h1v1h-1v-1z"/>
<path d="M224 150h1v1h-1v-1z"/>
<path d="M241 150h1v1h-1v-1z"/>
<path d="M9 151h3v1h1v2h-1v-1h-1v-1h-2v-1z"/>
<path d="M132 151h1v1h-1v-1z"/>
<path d="M134 151h1v1h-1v-1z"/>
<path d="M136 151h1v1h-1v-1z"/>
<path d="M138 151h1v1h-1v-1z"/>
<path d="M140 151h1v1h-1v-1z"/>
<path d="M142 151h1v1h-1v-1z"/>
<path d="M144 151h1v1h-1v-1z"/>
<path d="M146 151h1v1h-1v-1z"/>
<path d="M149 151h1v1h-1v-1z"/>
<path d="M211 151h1v2h-1v-2z"/>
<path d="M239 151h1v1h-1v-1z"/>
<path d="M6 152h1v2h-1v-2z"/>
<path d="M8 152h1v1h-1v-1z"/>
<path d="M133 152h1v1h-1v-1z"/>
<path d="M135 152h1v1h-1v-1z"/>
<path d="M137 152h1v1h-1v-1z"/>
<path d="M139 152h1v1h-1v-1z"/>
<path d="M141 152h1v1h-1v-1z"/>
<path d="M143 152h1v1h-1v-1z"/>
<path d="M145 152h1v1h-1v-1z"/>
<path d="M148 152h1v1h-1v-1z"/>
<path d="M150 152h1v1h-1v-1z"/>
<path d="M152 152h1v1h-1v-1z"/>
<path d="M154 152h1v1h-1v-1z"/>
<path d="M162 152h2v1h-2v-1z"/>
<path d="M213 152h2v1h-2v-1z"/>
<path d="M217 152h1v1h-1v-1z"/>
<path d="M219 152h1v1h-1v-1z"/>
<path d="M221 152h1v1h-1v-1z"/>
<path d="M224 152h1v1h-1v-1z"/>
<path d="M9 153h1v1h-1v-1z"/>
<path d="M134 153h1v2h-1v-2z"/>
<path d="M136 153h1v2h-1v-2z"/>
<path d="M138 153h1v2h-1v-2z"/>
<path d="M140 153h1v2h-1v-2z"/>
<path d="M142 153h1v2h-1v-2z"/>
<path d="M144 153h1v2h-1v-2z"/>
<path d="M146 153h1v2h-1v-2z"/>
<path d="M149 153h1v1h-1v-1z"/>
<path d="M164 153h1v1h-1v-1z"/>
<path d="M208 153h1v1h-1v-1z"/>
<path d="M210 153h1v1h-1v-1z"/>
<path d="M212 153h1v1h-1v-1z"/>
<path d="M216 153h1v1h-1v-1z"/>
<path d="M220 153h1v1h-1v-1z"/>
<path d="M5 154h1v1h-1v-1z"/>
<path d="M7 154h2v1h-1v2h-1v-3z"/>
<path d="M10 154h2v1h-1v1h-1v-2z"/>
<path d="M13 154h1v1h-1v-1z"/>
<path d="M148 154h1v1h-1v-1z"/>
<path d="M151 154h1v1h-1v-1z"/>
<path d="M153 154h1v1h-1v-1z"/>
<path d="M155 154h1v1h-1v-1z"/>
<path d="M163 154h1v1h-1v-1z"/>
<path d="M209 154h1v1h-1v-1z"/>
<path d="M211 154h1v2h-1v1h-1v-2h1v-1z"/>
<path d="M213 154h1v1h-1v-1z"/>
<path d="M12 155h1v1h-1v-1z"/>
<path d="M133 155h1v1h-1v-1z"/>
<path d="M135 155h1v1h-1v-1z"/>
<path d="M137 155h1v1h-1v-1z"/>
<path d="M139 155h1v1h-1v-1z"/>
<path d="M141 155h1v1h-1v-1z"/>
<path d="M143 155h1v1h-1v-1z"/>
<path d="M145 155h1v1h-1v-1z"/>
<path d="M147 155h1v1h-1v-1z"/>
<path d="M150 155h1v1h-1v-1z"/>
<path d="M162 155h1v1h-1v-1z"/>
<path d="M215 155h1v1h-1v-1z"/>
<path d="M219 155h1v1h-1v-1z"/>
<path d="M4 156h2v1h-2v-1z"/>
<path d="M9 156h1v1h-1v-1z"/>
<path d="M11 156h1v1h-1v-1z"/>
<path d="M138 156h1v4h-1v-4z"/>
<path d="M140 156h1v4h-1v-4z"/>
<path d="M142 156h1v4h-1v-4z"/>
<path d="M144 156h1v1h-1v-1z"/>
<path d="M148 156h1v1h-1v-1z"/>
<path d="M152 156h1v1h-1v-1z"/>
<path d="M154 156h1v1h-1v-1z"/>
<path d="M160 156h1v1h-1v-1z"/>
<path d="M207 156h1v1h-1v-1z"/>
<path d="M212 156h1v2h-2v-1h1v-1z"/>
<path d="M214 156h1v1h-1v-1z"/>
<path d="M6 157h1v1h-1v-1z"/>
<path d="M8 157h1v1h-1v-1z"/>
<path d="M10 157h1v1h-1v-1z"/>
<path d="M145 157h2v1h-2v-1z"/>
<path d="M149 157h1v1h-1v-1z"/>
<path d="M156 157h1v1h-1v-1z"/>
<path d="M158 157h1v1h-1v-1z"/>
<path d="M161 157h1v1h-1v-1z"/>
<path d="M163 157h1v1h-1v-1z"/>
<path d="M208 157h1v1h-1v-1z"/>
<path d="M215 157h2v3h1v1h-2v-3h-1v-1z"/>
<path d="M219 157h1v1h-1v-1z"/>
<path d="M3 158h1v1h-1v-1z"/>
<path d="M5 158h1v1h-1v-1z"/>
<path d="M7 158h1v1h-1v-1z"/>
<path d="M9 158h1v1h-1v-1z"/>
<path d="M11 158h1v1h-1v-1z"/>
<path d="M144 158h1v2h-1v-2z"/>
<path d="M147 158h1v1h-1v-1z"/>
<path d="M150 158h1v1h-1v-1z"/>
<path d="M152 158h1v1h-1v-1z"/>
<path d="M154 158h1v1h-1v-1z"/>
<path d="M159 158h1v1h-1v-1z"/>
<path d="M162 158h1v2h-1v-2z"/>
<path d="M209 158h1v1h-1v-1z"/>
<path d="M213 158h2v1h-2v-1z"/>
<path d="M220 158h1v1h-1v-1z"/>
<path d="M6 159h1v2h-1v-2z"/>
<path d="M8 159h1v1h-1v-1z"/>
<path d="M10 159h1v1h-1v-1z"/>
<path d="M146 159h1v1h-1v-1z"/>
<path d="M149 159h1v1h-1v-1z"/>
<path d="M151 159h1v1h-1v-1z"/>
<path d="M156 159h1v1h-1v-1z"/>
<path d="M158 159h1v1h-1v-1z"/>
<path d="M160 159h1v1h-1v-1z"/>
<path d="M210 159h1v1h-1v-1z"/>
<path d="M212 159h1v1h-1v-1z"/>
<path d="M2 160h1v2h-1v-2z"/>
<path d="M4 160h1v1h-1v-1z"/>
<path d="M11 160h1v1h-1v-1z"/>
<path d="M137 160h1v1h-1v-1z"/>
<path d="M143 160h1v1h-1v-1z"/>
<path d="M145 160h1v1h-1v-1z"/>
<path d="M147 160h1v1h-1v-1z"/>
<path d="M153 160h1v1h-1v-1z"/>
<path d="M155 160h1v1h-1v-1z"/>
<path d="M159 160h1v1h-1v-1z"/>
<path d="M161 160h1v1h-1v-1z"/>
<path d="M214 160h1v1h-1v-1z"/>
<path d="M221 160h1v1h-1v-1z"/>
<path d="M223 160h1v1h-1v-1z"/>
<path d="M5 161h1v1h-1v-1z"/>
<path d="M7 161h1v3h-2v-1h1v-2z"/>
<path d="M10 161h1v1h-1v-1z"/>
<path d="M12 161h2v1h-2v-1z"/>
<path d="M144 161h1v1h-1v-1z"/>
<path d="M146 161h1v1h-1v-1z"/>
<path d="M148 161h1v1h-1v-1z"/>
<path d="M150 161h1v1h-1v-1z"/>
<path d="M156 161h1v1h-1v-1z"/>
<path d="M158 161h1v1h-1v-1z"/>
<path d="M160 161h1v1h-1v-1z"/>
<path d="M208 161h1v1h1v1h-1v1h-1v-3z"/>
<path d="M211 161h1v1h-1v-1z"/>
<path d="M215 161h1v1h1v1h-3v1h-1v1h-1v-1h-1v2h-1v-1h-1v-1h1v-1h3v-1h2v-1z"/>
<path d="M224 161h1v1h-1v-1z"/>
<path d="M1 162h1v1h-1v-1z"/>
<path d="M3 162h1v1h-1v-1z"/>
<path d="M11 162h1v1h-1v-1z"/>
<path d="M14 162h1v1h-1v-1z"/>
<path d="M143 162h1v1h-1v-1z"/>
<path d="M145 162h1v1h-1v-1z"/>
<path d="M147 162h1v1h-1v-1z"/>
<path d="M151 162h1v1h-1v-1z"/>
<path d="M153 162h1v2h-1v-2z"/>
<path d="M155 162h1v2h-1v-2z"/>
<path d="M157 162h1v2h-1v-2z"/>
<path d="M159 162h1v2h-1v-2z"/>
<path d="M226 162h1v1h-1v-1z"/>
<path d="M2 163h1v1h-1v-1z"/>
<path d="M13 163h1v1h-1v-1z"/>
<path d="M15 163h1v1h-1v-1z"/>
<path d="M144 163h1v1h-1v-1z"/>
<path d="M146 163h1v1h-1v-1z"/>
<path d="M149 163h2v1h-2v-1z"/>
<path d="M225 163h1v1h-1v-1z"/>
<path d="M1 164h1v2h-1v-2z"/>
<path d="M4 164h1v1h-1v-1z"/>
<path d="M9 164h1v1h-1v-1z"/>
<path d="M11 164h2v1h-2v-1z"/>
<path d="M14 164h1v1h-1v-1z"/>
<path d="M147 164h1v1h-1v-1z"/>
<path d="M151 164h2v3h-1v-2h-1v-1z"/>
<path d="M158 164h1v1h-1v-1z"/>
<path d="M160 164h1v1h-1v-1z"/>
<path d="M207 164h1v1h-1v-1z"/>
<path d="M214 164h1v1h-1v-1z"/>
<path d="M216 164h1v1h-1v-1z"/>
<path d="M224 164h1v1h-1v-1z"/>
<path d="M6 165h1v1h-1v-1z"/>
<path d="M10 165h1v1h-1v-1z"/>
<path d="M13 165h1v1h-1v-1z"/>
<path d="M159 165h1v1h-1v-1z"/>
<path d="M161 165h1v1h-1v-1z"/>
<path d="M206 165h1v1h-1v-1z"/>
<path d="M208 165h1v1h-1v-1z"/>
<path d="M213 165h1v1h-1v-1z"/>
<path d="M215 165h1v2h-1v-2z"/>
<path d="M220 165h1v1h-1v-1z"/>
<path d="M3 166h1v1h-1v-1z"/>
<path d="M5 166h1v1h-1v-1z"/>
<path d="M11 166h2v1h-1v1h-2v-1h1v-1z"/>
<path d="M150 166h1v1h-1v-1z"/>
<path d="M207 166h1v1h-1v-1z"/>
<path d="M209 166h1v1h-1v-1z"/>
<path d="M211 166h1v1h-1v-1z"/>
<path d="M217 166h1v1h-1v-1z"/>
<path d="M1 167h2v1h-2v-1z"/>
<path d="M7 167h1v1h-1v-1z"/>
<path d="M151 167h1v1h-1v-1z"/>
<path d="M210 167h1v3h-1v-3z"/>
<path d="M218 167h1v1h-1v-1z"/>
<path d="M223 167h1v1h-1v-1z"/>
<path d="M3 168h1v1h-1v-1z"/>
<path d="M9 168h1v1h-1v-1z"/>
<path d="M214 168h1v1h-1v-1z"/>
<path d="M216 168h2v1h-2v-1z"/>
<path d="M222 168h1v1h-1v-1z"/>
<path d="M4 169h1v1h-1v-1z"/>
<path d="M7 169h1v1h-1v-1z"/>
<path d="M10 169h2v1h-1v1h-1v-2z"/>
<path d="M218 169h2v1h-2v-1z"/>
<path d="M223 169h1v1h-1v-1z"/>
<path d="M225 169h1v1h-1v-1z"/>
<path d="M1 170h1v1h-1v-1z"/>
<path d="M5 170h1v1h-1v-1z"/>
<path d="M8 170h1v1h-1v-1z"/>
<path d="M12 170h1v1h-1v-1z"/>
<path d="M209 170h1v1h-1v-1z"/>
<path d="M212 170h1v1h-1v-1z"/>
<path d="M222 170h1v1h-1v-1z"/>
<path d="M224 170h1v1h-1v-1z"/>
<path d="M226 170h1v1h-1v-1z"/>
<path d="M4 171h1v1h-1v-1z"/>
<path d="M7 171h1v1h-1v-1z"/>
<path d="M9 171h1v1h-1v-1z"/>
<path d="M11 171h1v1h-1v-1z"/>
<path d="M208 171h1v1h-1v-1z"/>
<path d="M213 171h1v1h-1v-1z"/>
<path d="M216 171h1v1h-1v-1z"/>
<path d="M219 171h1v1h-1v-1z"/>
<path d="M221 171h1v1h-1v-1z"/>
<path d="M228 171h1v1h-1v-1z"/>
<path d="M1 172h1v1h-1v-1z"/>
<path d="M6 172h1v1h-1v-1z"/>
<path d="M10 172h1v1h-1v-1z"/>
<path d="M207 172h1v1h-1v-1z"/>
<path d="M209 172h2v1h-2v-1z"/>
<path d="M212 172h1v1h-1v-1z"/>
<path d="M214 172h2v1h-2v-1z"/>
<path d="M218 172h1v1h-1v-1z"/>
<path d="M2 173h1v1h-1v-1z"/>
<path d="M4 173h1v1h-1v-1z"/>
<path d="M7 173h2v1h-2v-1z"/>
<path d="M11 173h1v1h-1v-1z"/>
<path d="M14 173h1v1h1v1h-1v1h-1v-1h-1v1h-1v-2h2v-1z"/>
<path d="M208 173h1v1h-1v-1z"/>
<path d="M213 173h1v1h-1v-1z"/>
<path d="M216 173h1v1h-1v-1z"/>
<path d="M220 173h1v1h-1v-1z"/>
<path d="M6 174h1v1h-1v-1z"/>
<path d="M9 174h2v1h-2v-1z"/>
<path d="M209 174h1v1h-1v-1z"/>
<path d="M211 174h1v1h-1v-1z"/>
<path d="M215 174h1v1h-1v-1z"/>
<path d="M218 174h1v1h-1v-1z"/>
<path d="M1 175h1v1h-1v-1z"/>
<path d="M5 175h1v1h-1v-1z"/>
<path d="M8 175h1v1h-1v-1z"/>
<path d="M208 175h1v1h-1v-1z"/>
<path d="M210 175h1v1h-1v-1z"/>
<path d="M212 175h1v1h-1v-1z"/>
<path d="M217 175h1v1h-1v-1z"/>
<path d="M219 175h2v1h-2v-1z"/>
<path d="M3 176h1v1h-1v-1z"/>
<path d="M7 176h1v1h-1v-1z"/>
<path d="M9 176h1v1h-1v-1z"/>
<path d="M11 176h1v1h-1v-1z"/>
<path d="M13 176h1v1h-1v-1z"/>
<path d="M15 176h1v1h-1v-1z"/>
<path d="M204 176h1v1h-1v-1z"/>
<path d="M207 176h1v2h-1v-2z"/>
<path d="M209 176h1v1h-1v-1z"/>
<path d="M211 176h1v1h-1v-1z"/>
<path d="M4 177h2v1h-1v1h-1v-2z"/>
<path d="M8 177h1v1h-1v-1z"/>
<path d="M10 177h1v1h-1v-1z"/>
<path d="M12 177h1v1h1v1h-1v1h-1v1h1v1h1v-1h1v2h-1v1h-1v-1h-1v-1h-1v-1h-2v-3h1	v2h1v-2h1v-1z"/>
<path d="M14 177h1v1h-1v-1z"/>
<path d="M16 177h1v1h-1v-1z"/>
<path d="M192 177h2v1h-2v-1z"/>
<path d="M205 177h1v1h-1v-1z"/>
<path d="M210 177h1v1h-1v-1z"/>
<path d="M212 177h1v1h-1v-1z"/>
<path d="M6 178h2v1h-2v-1z"/>
<path d="M15 178h1v1h-1v-1z"/>
<path d="M17 178h1v1h-1v-1z"/>
<path d="M195 178h1v2h-2v-1h1v-1z"/>
<path d="M201 178h1v1h-1v-1z"/>
<path d="M206 178h1v1h-1v-1z"/>
<path d="M208 178h1v2h-2v-1h1v-1z"/>
<path d="M211 178h1v1h-1v-1z"/>
<path d="M3 179h1v1h-1v-1z"/>
<path d="M5 179h1v1h-1v-1z"/>
<path d="M14 179h1v1h-1v-1z"/>
<path d="M16 179h1v1h-1v-1z"/>
<path d="M212 179h1v1h-1v-1z"/>
<path d="M1 180h1v1h-1v-1z"/>
<path d="M4 180h1v1h-1v-1z"/>
<path d="M7 180h1v1h1v1h-2v-2z"/>
<path d="M13 180h1v1h-1v-1z"/>
<path d="M15 180h1v1h-1v-1z"/>
<path d="M211 180h1v1h-1v-1z"/>
<path d="M5 181h1v1h-1v-1z"/>
<path d="M16 181h1v1h2v1h-2v1h-1v1h1v1h-1v1h-1v2h-1v-1h-1v-1h1v-1h1v-1h-1v-1h1	v-1h1v-2z"/>
<path d="M189 181h1v1h-1v-1z"/>
<path d="M207 181h2v1h-2v-1z"/>
<path d="M213 181h1v1h-1v-1z"/>
<path d="M6 182h1v1h-1v-1z"/>
<path d="M9 182h2v1h-1v3h-1v-4z"/>
<path d="M193 182h1v2h-1v-2z"/>
<path d="M209 182h1v1h-1v-1z"/>
<path d="M5 183h1v1h-1v-1z"/>
<path d="M7 183h1v1h-1v-1z"/>
<path d="M11 183h1v1h-1v-1z"/>
<path d="M208 183h1v1h-1v-1z"/>
<path d="M212 183h1v1h-1v-1z"/>
<path d="M12 184h1v1h-1v-1z"/>
<path d="M168 184h1v1h-1v-1z"/>
<path d="M192 184h1v1h-1v-1z"/>
<path d="M205 184h1v1h-1v-1z"/>
<path d="M207 184h1v1h-1v-1z"/>
<path d="M4 185h1v1h-1v-1z"/>
<path d="M6 185h1v1h-1v-1z"/>
<path d="M11 185h1v1h-1v-1z"/>
<path d="M13 185h1v1h-1v-1z"/>
<path d="M169 185h1v1h-1v-1z"/>
<path d="M193 185h1v1h-1v-1z"/>
<path d="M195 185h1v1h-1v-1z"/>
<path d="M204 185h1v1h1v1h-1v1h-3v-1h1v-1h1v-1z"/>
<path d="M206 185h1v1h-1v-1z"/>
<path d="M208 185h1v1h-1v-1z"/>
<path d="M8 186h1v1h-1v-1z"/>
<path d="M12 186h1v1h-1v-1z"/>
<path d="M17 186h1v1h-1v-1z"/>
<path d="M159 186h1v1h-1v-1z"/>
<path d="M186 186h1v1h1v2h-1v-1h-2v-1h1v-1z"/>
<path d="M188 186h1v1h-1v-1z"/>
<path d="M192 186h1v2h-1v1h-1v-1h-1v-1h2v-1z"/>
<path d="M207 186h1v1h-1v-1z"/>
<path d="M2 187h1v1h-1v-1z"/>
<path d="M6 187h2v1h-1v2h-1v-3z"/>
<path d="M10 187h2v1h-2v-1z"/>
<path d="M16 187h1v1h-1v-1z"/>
<path d="M154 187h1v1h-1v-1z"/>
<path d="M156 187h1v1h-1v-1z"/>
<path d="M194 187h1v1h-1v-1z"/>
<path d="M206 187h1v1h-1v-1z"/>
<path d="M209 187h1v1h-1v-1z"/>
<path d="M4 188h1v1h-1v-1z"/>
<path d="M8 188h2v1h-1v1h1v-1h1v2h-1v2h3v1h-4v-1h-1v-1h1v-1h-1v-3z"/>
<path d="M12 188h1v1h-1v-1z"/>
<path d="M17 188h2v2h-1v-1h-1v-1z"/>
<path d="M175 188h1v1h-1v-1z"/>
<path d="M189 188h1v1h-1v-1z"/>
<path d="M207 188h2v1h-2v-1z"/>
<path d="M13 189h1v1h-1v-1z"/>
<path d="M15 189h1v1h-1v-1z"/>
<path d="M152 189h1v1h-1v-1z"/>
<path d="M176 189h1v1h1v1h-2v-2z"/>
<path d="M185 189h1v1h-1v-1z"/>
<path d="M188 189h1v1h-1v-1z"/>
<path d="M190 189h1v2h-1v-2z"/>
<path d="M192 189h1v1h-1v-1z"/>
<path d="M2 190h1v1h-1v-1z"/>
<path d="M5 190h1v2h-1v-2z"/>
<path d="M12 190h1v1h-1v-1z"/>
<path d="M16 190h2v1h-1v1h-2v-1h1v-1z"/>
<path d="M113 190h1v1h1v-1h1v1h1v1h-1v1h-1v-1h-1v1h-1v-1h-1v-1h1v-1z"/>
<path d="M138 190h1v1h-1v-1z"/>
<path d="M148 190h1v1h-1v-1z"/>
<path d="M170 190h1v1h-1v-1z"/>
<path d="M172 190h1v1h-1v-1z"/>
<path d="M187 190h1v1h-1v-1z"/>
<path d="M207 190h2v1h-2v-1z"/>
<path d="M7 191h1v1h-1v-1z"/>
<path d="M11 191h1v1h-1v-1z"/>
<path d="M137 191h1v1h-1v-1z"/>
<path d="M141 191h1v1h-1v-1z"/>
<path d="M145 191h1v1h-1v-1z"/>
<path d="M167 191h1v1h-1v-1z"/>
<path d="M169 191h1v1h-1v-1z"/>
<path d="M171 191h1v1h-1v-1z"/>
<path d="M189 191h1v1h-1v-1z"/>
<path d="M201 191h2v2h1v1h1v-1h1v1h1v1h-1v1h-1v-1h-1v1h-1v-1h-1v-3h-1v-1z"/>
<path d="M204 191h1v2h-1v-2z"/>
<path d="M206 191h1v2h-1v-2z"/>
<path d="M3 192h1v1h-1v-1z"/>
<path d="M6 192h1v2h-1v-2z"/>
<path d="M13 192h2v1h1v1h-1v1h-1v1h-2v2h-1v-2h-1v-1h3v-1h1v-1h-1v-1z"/>
<path d="M138 192h1v1h-1v-1z"/>
<path d="M177 192h1v1h-1v-1z"/>
<path d="M184 192h1v1h-1v-1z"/>
<path d="M200 192h1v1h-1v-1z"/>
<path d="M4 193h1v1h-1v-1z"/>
<path d="M114 193h1v1h-1v-1z"/>
<path d="M116 193h1v1h-1v-1z"/>
<path d="M126 193h1v1h-1v-1z"/>
<path d="M133 193h1v2h-1v-2z"/>
<path d="M136 193h1v1h-1v-1z"/>
<path d="M139 193h1v1h-1v-1z"/>
<path d="M141 193h1v1h-1v-1z"/>
<path d="M185 193h1v1h-1v-1z"/>
<path d="M207 193h1v1h-1v-1z"/>
<path d="M2 194h1v1h-1v-1z"/>
<path d="M5 194h1v1h-1v-1z"/>
<path d="M8 194h1v2h-2v-1h1v-1z"/>
<path d="M17 194h1v1h-1v-1z"/>
<path d="M113 194h1v1h-1v-1z"/>
<path d="M115 194h1v1h-1v-1z"/>
<path d="M117 194h1v1h-1v-1z"/>
<path d="M119 194h1v1h-1v-1z"/>
<path d="M125 194h1v1h-1v-1z"/>
<path d="M127 194h1v1h-1v-1z"/>
<path d="M129 194h1v1h-1v-1z"/>
<path d="M135 194h1v1h-1v-1z"/>
<path d="M184 194h1v2h-3v-1h2v-1z"/>
<path d="M1 195h1v1h-1v-1z"/>
<path d="M4 195h1v1h-1v-1z"/>
<path d="M16 195h1v1h-1v-1z"/>
<path d="M18 195h1v1h-1v-1z"/>
<path d="M112 195h1v1h-1v-1z"/>
<path d="M114 195h1v1h-1v-1z"/>
<path d="M116 195h1v1h-1v-1z"/>
<path d="M118 195h1v1h-1v-1z"/>
<path d="M120 195h1v1h-1v-1z"/>
<path d="M122 195h1v1h-1v-1z"/>
<path d="M124 195h1v1h-1v-1z"/>
<path d="M126 195h1v1h-1v-1z"/>
<path d="M128 195h1v1h-1v-1z"/>
<path d="M130 195h1v1h-1v-1z"/>
<path d="M132 195h1v1h-1v-1z"/>
<path d="M134 195h1v1h-1v-1z"/>
<path d="M201 195h1v1h1v1h1v1h3v1h-1v3h-1v-1h-1v-1h-1v1h-1v-2h1v-1h-1v-1h-1v-2zM204 199v1h1v-1h-1z" fill-rule="nonzero"/>
<path d="M207 195h1v1h-1v-1z"/>
<path d="M3 196h1v1h-1v-1z"/>
<path d="M5 196h2v1h1v1h-2v-1h-1v-1z"/>
<path d="M9 196h1v2h-1v-2z"/>
<path d="M15 196h1v1h-1v-1z"/>
<path d="M17 196h1v1h-1v-1z"/>
<path d="M111 196h1v1h-1v-1z"/>
<path d="M113 196h1v1h-1v-1z"/>
<path d="M115 196h1v1h-1v-1z"/>
<path d="M117 196h1v1h-1v-1z"/>
<path d="M119 196h1v1h-1v-1z"/>
<path d="M121 196h1v1h1v1h-2v1h-1v-2h1v-1z"/>
<path d="M123 196h1v1h-1v-1z"/>
<path d="M125 196h1v1h-1v-1z"/>
<path d="M127 196h1v1h-1v-1z"/>
<path d="M129 196h1v1h-1v-1z"/>
<path d="M131 196h1v1h-1v-1z"/>
<path d="M133 196h1v1h-1v-1z"/>
<path d="M186 196h1v1h-1v-1z"/>
<path d="M206 196h1v1h-1v-1z"/>
<path d="M13 197h1v1h-1v-1z"/>
<path d="M110 197h1v1h-1v-1z"/>
<path d="M112 197h1v1h-1v-1z"/>
<path d="M114 197h1v1h-1v-1z"/>
<path d="M116 197h1v1h-1v-1z"/>
<path d="M118 197h1v2h-1v1h-1v-2h1v-1z"/>
<path d="M124 197h1v1h-1v-1z"/>
<path d="M126 197h1v1h-1v-1z"/>
<path d="M128 197h1v1h-1v-1z"/>
<path d="M130 197h1v1h-1v-1z"/>
<path d="M132 197h1v1h-1v-1z"/>
<path d="M134 197h1v1h-1v-1z"/>
<path d="M207 197h1v1h-1v-1z"/>
<path d="M2 198h1v1h-1v-1z"/>
<path d="M4 198h2v1h-2v-1z"/>
<path d="M8 198h1v1h-1v-1z"/>
<path d="M10 198h1v1h-1v-1z"/>
<path d="M12 198h1v1h-1v-1z"/>
<path d="M14 198h1v1h-1v-1z"/>
<path d="M111 198h1v2h-2v-1h1v-1z"/>
<path d="M113 198h1v2h-1v-2z"/>
<path d="M115 198h1v2h-1v-2z"/>
<path d="M123 198h1v1h-1v-1z"/>
<path d="M125 198h1v1h-1v-1z"/>
<path d="M127 198h1v1h-1v-1z"/>
<path d="M129 198h1v1h-1v-1z"/>
<path d="M133 198h1v1h-1v-1z"/>
<path d="M3 199h1v1h-1v-1z"/>
<path d="M7 199h1v1h-1v-1z"/>
<path d="M9 199h1v1h-1v-1z"/>
<path d="M11 199h1v1h-1v-1z"/>
<path d="M13 199h1v1h-1v-1z"/>
<path d="M119 199h1v1h-1v-1z"/>
<path d="M121 199h2v1h-2v-1z"/>
<path d="M124 199h1v1h-1v-1z"/>
<path d="M126 199h1v1h-1v-1z"/>
<path d="M128 199h1v1h-1v-1z"/>
<path d="M130 199h1v1h-1v-1z"/>
<path d="M132 199h1v1h-1v-1z"/>
<path d="M207 199h1v2h-1v-2z"/>
<path d="M4 200h2v1h-2v-1z"/>
<path d="M10 200h1v1h-1v-1z"/>
<path d="M12 200h1v1h-1v-1z"/>
<path d="M109 200h1v1h-1v-1z"/>
<path d="M112 200h1v1h-1v-1z"/>
<path d="M114 200h1v1h-1v-1z"/>
<path d="M116 200h1v1h-1v-1z"/>
<path d="M118 200h1v1h-1v-1z"/>
<path d="M120 200h1v1h-1v-1z"/>
<path d="M123 200h1v2h-1v-2z"/>
<path d="M125 200h1v2h-1v-2z"/>
<path d="M127 200h1v1h-1v-1z"/>
<path d="M131 200h1v1h-1v-1z"/>
<path d="M136 200h1v1h-1v-1z"/>
<path d="M6 201h1v1h-1v-1z"/>
<path d="M8 201h1v1h-1v-1z"/>
<path d="M11 201h1v1h-1v-1z"/>
<path d="M38 201h1v1h-1v-1z"/>
<path d="M108 201h1v1h-1v-1z"/>
<path d="M110 201h2v1h-2v-1z"/>
<path d="M113 201h1v1h-1v-1z"/>
<path d="M115 201h1v1h-1v-1z"/>
<path d="M117 201h1v1h-1v-1z"/>
<path d="M119 201h1v1h-1v-1z"/>
<path d="M121 201h1v1h-1v-1z"/>
<path d="M128 201h1v1h-1v-1z"/>
<path d="M132 201h1v1h-1v-1z"/>
<path d="M203 201h1v1h-1v-1z"/>
<path d="M4 202h1v1h-1v-1z"/>
<path d="M7 202h1v1h-1v-1z"/>
<path d="M9 202h2v1h-2v-1z"/>
<path d="M12 202h1v1h-1v-1z"/>
<path d="M14 202h1v1h-1v-1z"/>
<path d="M37 202h1v1h-1v-1z"/>
<path d="M40 202h1v1h-1v-1z"/>
<path d="M107 202h1v1h-1v-1z"/>
<path d="M109 202h1v2h-2v-1h1v-1z"/>
<path d="M112 202h1v1h-1v-1z"/>
<path d="M114 202h1v1h-1v-1z"/>
<path d="M116 202h1v1h-1v-1z"/>
<path d="M118 202h1v1h-1v-1z"/>
<path d="M120 202h1v1h-1v-1z"/>
<path d="M122 202h1v1h-1v-1z"/>
<path d="M124 202h1v1h-1v-1z"/>
<path d="M126 202h2v1h-2v-1z"/>
<path d="M130 202h1v1h-1v-1z"/>
<path d="M134 202h1v1h-1v-1z"/>
<path d="M202 202h1v1h2v1h-1v1h1v-1h1v1h2v2h-1v-1h-1v1h-1v-1h-1v1h-1v-2h-1v-3z"/>
<path d="M206 202h1v1h-1v-1z"/>
<path d="M6 203h1v1h-1v-1z"/>
<path d="M36 203h1v1h-1v-1z"/>
<path d="M106 203h1v1h1v1h1v1h-2v-1h-1v-2z"/>
<path d="M111 203h1v1h-1v-1z"/>
<path d="M113 203h1v1h-1v-1z"/>
<path d="M115 203h1v1h-1v-1z"/>
<path d="M117 203h1v1h-1v-1z"/>
<path d="M119 203h1v1h-1v-1z"/>
<path d="M121 203h1v1h-1v-1z"/>
<path d="M123 203h1v1h-1v-1z"/>
<path d="M125 203h1v1h-1v-1z"/>
<path d="M129 203h1v1h-1v-1z"/>
<path d="M132 203h1v1h-1v-1z"/>
<path d="M5 204h1v1h-1v-1z"/>
<path d="M8 204h1v1h-1v-1z"/>
<path d="M10 204h5v1h-5v-1z"/>
<path d="M97 204h1v1h-1v-1z"/>
<path d="M110 204h1v2h-1v-2z"/>
<path d="M112 204h1v2h-1v-2z"/>
<path d="M114 204h1v1h-1v-1z"/>
<path d="M116 204h1v1h-1v-1z"/>
<path d="M118 204h1v1h-1v-1z"/>
<path d="M120 204h1v1h-1v-1z"/>
<path d="M122 204h1v1h-1v-1z"/>
<path d="M124 204h1v1h-1v-1z"/>
<path d="M126 204h1v1h-1v-1z"/>
<path d="M128 204h1v1h-1v-1z"/>
<path d="M2 205h1v1h-1v-1z"/>
<path d="M6 205h1v2h1v1h-2v-3z"/>
<path d="M15 205h1v1h-1v-1z"/>
<path d="M36 205h1v1h-1v-1z"/>
<path d="M98 205h1v1h-1v-1z"/>
<path d="M105 205h1v1h-1v-1z"/>
<path d="M115 205h1v1h-1v-1z"/>
<path d="M119 205h1v1h-1v-1z"/>
<path d="M121 205h1v1h-1v-1z"/>
<path d="M123 205h1v1h-1v-1z"/>
<path d="M125 205h1v1h-1v-1z"/>
<path d="M129 205h1v1h-1v-1z"/>
<path d="M133 205h1v1h-1v-1z"/>
<path d="M4 206h1v1h-1v-1z"/>
<path d="M8 206h1v1h-1v-1z"/>
<path d="M10 206h1v1h-1v-1z"/>
<path d="M12 206h1v1h-1v-1z"/>
<path d="M14 206h1v2h1v2h-1v-1h-1v-3z"/>
<path d="M16 206h1v2h-1v-2z"/>
<path d="M37 206h1v1h-1v-1z"/>
<path d="M104 206h1v2h-1v-2z"/>
<path d="M106 206h1v2h-1v-2z"/>
<path d="M109 206h1v2h-2v-1h1v-1z"/>
<path d="M111 206h1v2h-1v-2z"/>
<path d="M114 206h1v1h-1v-1z"/>
<path d="M116 206h1v1h-1v-1z"/>
<path d="M118 206h1v1h-1v-1z"/>
<path d="M120 206h1v1h-1v-1z"/>
<path d="M122 206h1v1h-1v-1z"/>
<path d="M124 206h1v1h-1v-1z"/>
<path d="M127 206h1v1h-1v-1z"/>
<path d="M131 206h1v1h-1v-1z"/>
<path d="M1 207h1v1h-1v-1z"/>
<path d="M3 207h1v1h-1v-1z"/>
<path d="M18 207h1v1h-1v-1z"/>
<path d="M113 207h1v1h-1v-1z"/>
<path d="M117 207h1v1h-1v-1z"/>
<path d="M119 207h1v1h-1v-1z"/>
<path d="M121 207h1v1h-1v-1z"/>
<path d="M123 207h1v1h-1v-1z"/>
<path d="M126 207h1v1h-1v-1z"/>
<path d="M129 207h1v1h-1v-1z"/>
<path d="M133 207h1v1h-1v-1z"/>
<path d="M202 207h1v1h-1v-1z"/>
<path d="M2 208h1v1h-1v-1z"/>
<path d="M12 208h1v1h-1v-1z"/>
<path d="M102 208h2v2h-1v-1h-1v-1z"/>
<path d="M105 208h1v2h-1v-2z"/>
<path d="M107 208h1v1h1v2h-1v-1h-1v-2z"/>
<path d="M110 208h1v3h-1v-3z"/>
<path d="M112 208h1v1h-1v-1z"/>
<path d="M114 208h1v1h-1v-1z"/>
<path d="M116 208h1v1h-1v-1z"/>
<path d="M120 208h1v1h-1v-1z"/>
<path d="M124 208h1v1h-1v-1z"/>
<path d="M128 208h1v1h-1v-1z"/>
<path d="M7 209h2v1h-2v-1z"/>
<path d="M17 209h1v1h-1v-1z"/>
<path d="M101 209h1v1h-1v-1z"/>
<path d="M113 209h1v1h-1v-1z"/>
<path d="M117 209h1v1h-1v-1z"/>
<path d="M119 209h1v1h-1v-1z"/>
<path d="M121 209h1v1h-1v-1z"/>
<path d="M125 209h1v1h-1v-1z"/>
<path d="M130 209h1v1h-1v-1z"/>
<path d="M202 209h1v1h-1v-1z"/>
<path d="M204 209h1v1h-1v-1z"/>
<path d="M1 210h1v1h-1v-1z"/>
<path d="M19 210h1v1h-1v-1z"/>
<path d="M100 210h1v1h-1v-1z"/>
<path d="M102 210h1v1h-1v-1z"/>
<path d="M104 210h1v1h-1v-1z"/>
<path d="M106 210h1v1h-1v-1z"/>
<path d="M112 210h1v2h-1v-2z"/>
<path d="M115 210h1v1h-1v-1z"/>
<path d="M123 210h1v1h-1v-1z"/>
<path d="M127 210h1v1h-1v-1z"/>
<path d="M203 210h1v1h-1v-1z"/>
<path d="M206 210h1v1h-1v-1z"/>
<path d="M8 211h2v1h-2v-1z"/>
<path d="M103 211h1v2h-1v-2z"/>
<path d="M105 211h1v2h-1v-2z"/>
<path d="M107 211h1v2h-1v-2z"/>
<path d="M109 211h1v1h-1v-1z"/>
<path d="M114 211h1v1h-1v-1z"/>
<path d="M118 211h1v1h-1v-1z"/>
<path d="M120 211h1v1h-1v-1z"/>
<path d="M122 211h1v1h-1v-1z"/>
<path d="M126 211h1v1h-1v-1z"/>
<path d="M1 212h1v1h-1v-1z"/>
<path d="M3 212h1v1h-1v-1z"/>
<path d="M5 212h1v1h-1v-1z"/>
<path d="M13 212h1v1h-1v-1z"/>
<path d="M110 212h1v1h-1v-1z"/>
<path d="M113 212h1v1h-1v-1z"/>
<path d="M116 212h1v1h-1v-1z"/>
<path d="M124 212h1v1h-1v-1z"/>
<path d="M7 213h1v1h-1v-1z"/>
<path d="M106 213h1v1h-1v-1z"/>
<path d="M108 213h1v1h-1v-1z"/>
<path d="M111 213h1v2h-1v-2z"/>
<path d="M114 213h1v1h-1v-1z"/>
<path d="M117 213h1v1h-1v-1z"/>
<path d="M119 213h1v1h-1v-1z"/>
<path d="M121 213h1v1h-1v-1z"/>
<path d="M125 213h1v1h-1v-1z"/>
<path d="M13 214h1v1h-1v-1z"/>
<path d="M109 214h1v1h-1v-1z"/>
<path d="M113 214h1v1h-1v-1z"/>
<path d="M115 214h1v1h-1v-1z"/>
<path d="M123 214h1v1h-1v-1z"/>
<path d="M126 214h1v1h-1v-1z"/>
<path d="M1 215h1v1h-1v-1z"/>
<path d="M6 215h1v1h-1v-1z"/>
<path d="M114 215h1v1h-1v-1z"/>
<path d="M117 215h1v1h-1v-1z"/>
<path d="M119 215h1v1h-1v-1z"/>
<path d="M122 215h1v1h-1v-1z"/>
<path d="M4 216h2v1h-2v-1z"/>
<path d="M115 216h1v1h-1v-1z"/>
<path d="M121 216h1v1h-1v-1z"/>
<path d="M125 216h1v1h-1v-1z"/>
<path d="M2 217h1v1h-1v-1z"/>
<path d="M12 217h1v1h-1v-1z"/>
<path d="M1 219h1v1h-1v-1z"/>
</svg>
